<?xml version="1.0" standalone="no"?>
<!DOCTYPE svg PUBLIC "-//W3C//DTD SVG 20010904//EN"
 "http://www.w3.org/TR/2001/REC-SVG-20010904/DTD/svg10.dtd">
<svg version="1.0" xmlns="http://www.w3.org/2000/svg"
 width="920.000000pt" height="680.000000pt" viewBox="0 0 920.000000 680.000000"
 preserveAspectRatio="xMidYMid meet">

<g transform="translate(0.000000,680.000000) scale(0.100000,-0.100000)"
fill="#000000" stroke="none">
<path d="M2042 6395 c-18 -8 -80 -17 -137 -21 -102 -7 -105 -8 -150 -45 -26
-21 -62 -41 -81 -45 -61 -11 -104 -89 -104 -186 0 -66 -13 -100 -35 -92 -11 5
-13 -2 -10 -31 6 -46 -9 -75 -40 -75 -43 0 -64 -33 -99 -152 -9 -32 -21 -58
-26 -58 -4 0 -13 -13 -19 -30 -12 -35 -14 -35 -45 -15 -24 16 -59 10 -53 -8 2
-6 18 -15 35 -19 53 -14 36 -25 -20 -14 -29 6 -58 17 -64 24 -14 20 -39 3 -83
-55 l-33 -45 23 -32 c25 -33 27 -59 17 -176 -9 -96 -23 -129 -75 -182 l-47
-48 34 0 c19 0 93 7 165 14 71 8 131 13 132 12 1 -1 -8 -31 -21 -67 -19 -52
-27 -64 -44 -62 -12 2 -22 -4 -25 -15 -4 -16 -5 -16 -6 1 0 9 -6 17 -12 17 -6
0 -9 -10 -7 -22 2 -13 9 -22 16 -21 6 2 12 -2 12 -7 0 -6 5 -10 11 -10 6 0 8
7 5 17 -6 15 -4 15 13 -2 20 -17 20 -19 3 -32 -15 -12 -11 -13 36 -8 52 7 52
7 52 -20 0 -26 -2 -27 -32 -19 -18 5 -63 9 -100 9 -65 0 -68 -1 -106 -40 -21
-22 -44 -58 -51 -81 -12 -38 -12 -42 12 -67 13 -15 29 -27 34 -27 6 0 21 -10
35 -23 19 -18 28 -42 37 -93 7 -38 17 -72 23 -75 6 -4 4 -17 -6 -37 -15 -29
-15 -30 4 -25 13 3 20 0 20 -8 0 -11 2 -11 10 1 8 13 13 12 32 -7 26 -27 31
-70 9 -94 -17 -21 -36 -90 -46 -172 -3 -32 -15 -77 -25 -100 -10 -23 -23 -87
-29 -141 -11 -113 -3 -171 36 -251 14 -27 29 -81 34 -120 47 -380 40 -444 -73
-609 -72 -105 -91 -158 -84 -229 18 -188 19 -237 4 -255 -8 -9 -20 -46 -27
-82 -15 -77 -47 -150 -67 -150 -18 0 -18 18 1 89 8 32 16 100 18 152 3 52 10
141 17 199 9 82 9 116 0 162 -7 32 -10 76 -6 99 7 44 -1 109 -14 109 -12 0
-40 -124 -40 -179 0 -41 4 -52 21 -62 23 -12 23 -6 0 -238 -9 -91 -14 -108
-35 -128 -19 -18 -26 -36 -31 -90 -3 -37 -13 -109 -21 -158 -10 -65 -13 -134
-9 -245 4 -85 9 -299 13 -475 l8 -320 33 -67 c52 -104 176 -246 236 -272 82
-35 92 -36 114 -5 12 15 21 31 21 33 0 11 83 142 101 159 10 9 27 17 37 17 10
0 22 3 26 7 4 4 55 21 114 39 72 21 108 36 110 47 3 14 -2 14 -47 2 -27 -7
-53 -15 -58 -18 -5 -3 -33 -15 -62 -27 l-53 -21 26 31 c29 35 34 83 12 105
-23 24 -87 44 -161 52 l-70 8 -6 65 c-3 36 -13 81 -22 100 -14 27 -17 58 -16
152 2 105 0 122 -18 146 -14 19 -31 28 -57 30 -49 4 -90 -24 -136 -94 -58 -89
-80 -68 -62 57 10 73 47 179 61 179 3 0 20 12 37 28 35 31 66 92 64 125 -7 83
-2 98 57 155 l58 56 0 115 c0 67 8 154 18 206 12 65 17 143 17 276 0 102 3
207 6 233 l7 46 46 1 c25 1 36 4 24 6 -31 6 -29 17 12 54 46 43 45 62 -7 87
-62 29 -78 53 -78 113 0 31 -4 48 -10 44 -6 -4 -10 27 -10 84 0 50 4 91 9 91
13 0 21 164 8 172 -18 11 59 21 133 16 60 -3 74 -8 98 -31 24 -25 27 -34 27
-97 0 -39 4 -70 8 -70 5 0 5 -5 2 -10 -4 -6 -10 -8 -14 -6 -4 3 -12 -4 -19
-14 -10 -16 -8 -18 9 -17 41 3 53 32 59 145 l5 107 -45 44 c-45 46 -59 93 -39
132 4 9 0 65 -10 130 -11 63 -19 106 -20 96 -1 -10 -8 -41 -17 -68 -13 -39
-14 -58 -6 -92 8 -29 8 -45 1 -52 -7 -7 -10 -5 -7 7 1 9 -1 17 -7 17 -5 1 -11
-3 -11 -9 -1 -5 -2 -14 -3 -20 0 -5 -17 -10 -36 -10 -38 0 -36 -3 -55 105 -34
205 -33 268 3 263 16 -2 23 -16 35 -68 8 -36 14 -77 14 -92 -1 -16 3 -28 8
-28 5 0 16 45 26 100 l17 100 44 0 c24 0 43 -2 43 -4 0 -2 5 -28 10 -57 6 -30
13 -69 16 -88 3 -19 10 -43 14 -55 l9 -21 0 21 c1 34 51 199 62 202 5 2 9 15
9 28 0 27 21 32 43 9 8 -7 28 -17 43 -20 58 -13 80 -26 93 -57 l14 -31 19 37
c19 36 20 37 70 34 51 -3 52 -3 66 -47 l15 -45 35 70 c42 84 64 104 111 104
38 0 66 -15 113 -58 29 -27 42 -30 126 -31 l52 -1 0 -40 c0 -25 -5 -40 -12
-41 -7 -1 5 -7 27 -13 l40 -13 10 51 c7 36 15 50 25 49 8 -1 68 -7 133 -13
l117 -12 0 -35 c0 -28 -3 -33 -17 -29 -10 3 -52 6 -93 7 l-75 2 0 -29 c0 -29
0 -29 83 -38 l82 -9 0 -34 0 -34 -59 7 c-48 5 -63 3 -76 -10 -12 -12 -13 -16
-3 -16 11 0 11 -2 0 -9 -21 -13 -9 -36 23 -41 38 -7 67 -1 58 13 -3 6 4 3 18
-6 13 -9 31 -17 41 -17 10 0 18 -4 18 -9 0 -4 13 -23 29 -42 23 -26 27 -37 20
-51 -6 -12 -6 -18 1 -18 5 0 10 -4 10 -9 0 -9 -13 -8 -85 4 -16 3 -39 12 -50
21 -17 13 -18 16 -5 25 12 9 12 10 -4 5 -10 -4 -24 -2 -30 3 -7 6 -48 11 -91
13 l-80 3 2 79 c2 44 0 77 -3 73 -3 -3 -27 1 -52 8 -26 8 -63 17 -83 20 l-36
6 -7 -47 c-13 -99 -10 -109 35 -124 33 -11 122 -69 108 -70 -114 -11 -149 -3
-190 42 -9 10 -24 18 -33 18 -13 0 -16 12 -16 75 0 60 -3 75 -15 75 -22 0 -55
-37 -49 -55 4 -8 1 -15 -5 -15 -6 0 -11 4 -11 9 0 5 -18 13 -40 19 -45 11 -46
9 -25 -41 21 -50 19 -65 -7 -69 -20 -4 -19 -6 12 -20 43 -18 84 -65 101 -113
11 -31 18 -35 58 -41 113 -16 181 -95 181 -211 0 -25 6 -51 14 -58 11 -12 14
-4 20 46 13 133 96 212 221 210 134 -1 209 -91 206 -249 -2 -136 -77 -222
-197 -225 -30 -1 -54 -5 -54 -9 0 -5 4 -8 9 -8 12 0 54 -66 76 -120 l18 -46
96 4 c113 4 149 -7 217 -70 42 -38 64 -85 64 -133 0 -18 -8 -20 -61 -22 -58
-2 -61 -1 -70 27 -6 16 -23 36 -37 46 -27 17 -27 17 -10 -3 16 -17 17 -27 7
-79 -12 -67 -19 -77 -43 -68 -15 6 -16 18 -12 90 4 52 2 86 -5 90 -6 3 -30 3
-54 -1 -43 -6 -86 -38 -90 -66 -2 -8 -19 -41 -39 -74 -27 -46 -36 -71 -36
-106 0 -164 131 -256 257 -179 26 15 73 83 73 104 0 3 -33 6 -72 8 l-73 3 4
55 c1 30 4 56 5 56 0 1 58 4 129 7 126 6 127 5 127 -16 0 -84 -25 -333 -34
-339 -6 -4 -25 -8 -43 -8 -29 0 -33 4 -39 36 l-6 35 -28 -33 c-15 -18 -25 -37
-22 -42 3 -5 0 -6 -6 -2 -7 4 -22 0 -34 -8 -32 -23 -135 -21 -200 4 -77 29
-142 98 -169 178 -18 54 -21 81 -17 161 5 100 20 148 64 212 22 32 23 38 12
72 -7 20 -34 58 -60 86 l-47 49 14 59 c7 32 12 60 9 62 -2 2 0 9 5 15 10 12
-26 82 -37 72 -9 -9 -30 -149 -25 -166 4 -12 3 -12 -5 -1 -6 9 -11 10 -13 2
-5 -14 -96 32 -121 60 -15 18 -23 19 -76 10 -36 -6 -75 -6 -98 0 -22 4 -41 9
-45 9 -5 0 -5 -90 -1 -167 l2 -33 69 0 c61 0 70 -3 76 -20 4 -14 15 -20 33
-20 83 0 119 -93 81 -207 l-20 -62 26 -88 c18 -58 36 -96 52 -111 21 -19 24
-29 19 -56 -4 -19 0 -50 9 -75 8 -24 13 -46 11 -50 -3 -4 -26 -8 -53 -10 -50
-2 -114 -27 -149 -58 -16 -14 -20 -27 -17 -50 5 -28 3 -30 -21 -26 -14 3 -33
0 -41 -7 -8 -6 -20 -8 -27 -4 -8 5 -8 1 2 -11 9 -11 10 -16 3 -11 -7 4 -13 3
-13 -3 0 -7 -8 -7 -25 -1 -20 7 -25 6 -25 -5 0 -13 23 -20 56 -16 6 1 17 -12
24 -29 7 -16 16 -30 21 -30 21 0 20 -49 -1 -79 -25 -33 -24 -63 8 -134 16 -36
26 -45 72 -60 66 -23 155 -107 147 -139 -3 -11 -3 -18 0 -15 3 3 14 -3 25 -13
30 -27 37 -137 13 -190 -10 -22 -22 -37 -28 -33 -6 4 -8 -2 -5 -15 4 -12 2
-20 -3 -16 -5 3 -9 0 -9 -7 0 -6 -8 -9 -20 -6 -13 3 -20 0 -20 -10 0 -8 5 -11
10 -8 6 3 10 -1 10 -9 0 -19 16 -21 24 -3 3 6 5 3 3 -8 -1 -11 -7 -20 -12 -21
-6 0 -35 -12 -65 -26 -30 -14 -84 -38 -120 -53 -36 -15 -76 -32 -90 -38 -14
-6 -29 -11 -35 -12 -5 0 -14 -3 -20 -6 -5 -4 -34 -14 -62 -23 -29 -10 -53 -22
-53 -27 0 -5 -9 -9 -19 -9 -25 0 -79 -45 -68 -56 4 -5 12 -2 16 5 6 10 10 10
16 2 4 -8 11 -9 18 -2 7 5 26 11 42 14 34 6 145 47 190 71 17 9 40 16 53 16
13 0 31 4 40 9 10 5 38 12 62 16 24 4 52 11 62 16 9 5 24 9 32 9 24 0 21 -59
-4 -80 -12 -10 -17 -21 -11 -24 5 -4 13 -1 17 5 12 19 43 -96 41 -150 -2 -41
-5 -50 -17 -45 -8 4 -35 9 -60 11 -44 5 -46 4 -58 -29 -7 -19 -9 -49 -6 -66 5
-25 3 -32 -9 -32 -9 0 -19 10 -23 22 -13 41 -34 53 -97 53 -68 0 -87 -16 -87
-75 0 -26 7 -42 25 -58 13 -12 38 -46 55 -76 39 -69 65 -80 167 -72 43 3 120
9 171 12 81 6 92 9 92 25 0 13 17 28 54 46 57 28 86 26 86 -6 0 -11 4 -22 9
-26 13 -8 131 26 131 38 0 5 7 6 16 3 8 -3 20 -1 27 4 70 59 89 69 113 59 37
-14 91 -11 125 7 17 8 53 18 82 21 29 3 64 14 80 24 15 11 27 15 27 10 0 -5
-5 -13 -11 -17 -17 -10 -3 -106 21 -147 24 -40 42 -47 127 -47 34 0 74 -5 90
-11 32 -13 314 -30 326 -20 4 4 16 79 27 167 20 154 42 248 61 259 5 4 9 14 9
24 0 13 10 20 38 25 67 11 83 7 130 -34 36 -32 53 -40 76 -38 27 3 31 7 31 34
0 35 24 69 26 37 1 -10 1 -24 0 -30 -3 -24 19 -13 25 13 8 33 -2 124 -16 138
-5 5 -10 29 -10 52 0 24 -4 46 -10 49 -13 8 -13 56 0 75 9 13 13 12 30 -9 11
-13 20 -31 20 -41 0 -9 9 -28 19 -42 11 -13 22 -42 26 -64 10 -63 27 -127 42
-157 35 -70 111 -107 218 -107 46 0 54 10 35 40 -5 9 -5 19 1 27 6 6 9 26 7
44 -3 28 2 34 32 51 43 24 71 55 64 72 -7 18 -78 48 -98 40 -9 -3 -16 -1 -16
5 0 6 5 11 11 11 8 0 8 4 0 14 -6 7 -9 30 -7 49 3 22 0 38 -7 41 -8 3 -8 5 1
5 7 1 10 5 7 11 -12 19 129 129 166 130 9 0 28 11 42 24 31 29 26 63 -12 77
-32 13 -116 2 -132 -17 -14 -17 -70 -28 -98 -19 -24 7 -28 30 -8 42 26 15 27
78 2 166 -38 141 -9 219 92 246 23 6 90 27 148 46 58 19 118 35 132 35 24 0
25 -1 18 -52 -4 -29 -13 -74 -20 -101 -8 -30 -9 -50 -2 -54 5 -3 18 -25 29
-49 12 -29 25 -44 37 -44 10 0 36 -7 57 -16 l39 -17 -40 -12 c-22 -7 -35 -14
-30 -14 6 -1 2 -8 -9 -16 -10 -7 -15 -18 -12 -24 7 -10 46 18 40 29 -1 3 13
10 32 16 28 9 32 9 23 -2 -7 -9 -8 -14 -1 -14 5 0 8 -9 5 -20 -3 -11 -11 -20
-19 -20 -7 0 -19 -8 -26 -18 -16 -23 -55 -34 -62 -18 -2 6 -5 3 -5 -6 -1 -10
-7 -18 -14 -18 -23 0 -123 -113 -147 -165 -22 -47 -53 -192 -44 -206 6 -11
-37 -110 -69 -159 -33 -50 -41 -124 -16 -142 27 -18 386 10 415 33 6 5 27 11
48 13 20 3 41 8 46 11 13 8 6 93 -9 108 -16 16 -14 32 12 82 24 47 41 53 43
14 1 -13 5 -46 10 -74 4 -27 8 -54 9 -60 1 -27 75 -20 75 8 0 15 -41 47 -53
40 -5 -3 -8 0 -5 8 6 17 58 25 58 8 0 -8 5 -8 16 2 9 8 28 12 41 11 18 -3 26
2 30 17 6 25 16 26 34 5 9 -11 23 -14 47 -10 42 6 62 22 62 50 0 16 3 18 9 7
7 -11 10 -11 15 0 3 8 4 3 0 -11 -3 -14 -9 -45 -13 -69 -10 -51 -15 -55 -93
-71 -32 -6 -56 -15 -53 -21 10 -14 89 -11 111 6 10 8 31 15 45 15 32 0 105 52
127 90 9 16 24 31 34 33 9 3 26 24 37 48 36 79 51 164 55 306 3 126 5 143 31
197 l27 58 102 -4 c88 -3 107 -7 148 -31 26 -15 59 -27 73 -27 l27 0 -26 35
c-28 36 -50 125 -40 157 4 13 11 17 25 13 17 -6 19 -2 17 27 -2 18 -11 39 -21
46 -9 7 -15 18 -12 23 4 5 2 9 -3 9 -11 0 -3 101 9 114 4 5 4 17 -2 28 -5 10
-7 18 -4 18 3 0 -1 13 -10 30 -8 16 -15 44 -15 63 0 18 -6 39 -12 46 -11 10
-8 16 12 31 22 17 21 25 -2 21 -4 0 -6 14 -4 31 3 31 6 33 57 43 30 6 74 10
98 10 l44 0 34 -100 c30 -87 34 -109 29 -165 -5 -59 -9 -68 -46 -103 -39 -38
-40 -41 -40 -108 0 -59 3 -71 24 -91 30 -29 65 -95 70 -133 5 -43 21 -78 42
-96 24 -20 237 -40 341 -32 44 3 91 1 120 -7 70 -19 262 -14 285 7 10 9 18 24
18 33 0 9 9 27 20 40 24 27 26 44 5 36 -8 -3 -15 -1 -15 4 0 6 -5 10 -11 10
-5 0 -8 -4 -4 -9 3 -5 0 -13 -6 -16 -5 -4 -8 -13 -5 -21 4 -12 2 -12 -14 -4
-14 7 -20 7 -20 0 0 -5 -22 2 -50 16 -42 22 -52 33 -67 73 -14 40 -24 52 -72
78 -72 41 -135 102 -165 161 -13 26 -33 65 -45 87 -37 70 -57 144 -43 165 10
16 7 20 -23 30 -18 6 -52 24 -75 41 l-41 30 7 -53 c3 -29 10 -80 15 -113 6
-42 5 -70 -3 -93 -19 -51 -40 -37 -60 43 -15 56 -18 102 -16 231 2 107 -1 166
-8 175 -6 8 -14 27 -18 43 -4 16 -16 41 -27 54 -21 27 -25 62 -8 62 8 0 8 4 1
13 -15 17 -8 52 9 52 9 0 13 -9 11 -27 -3 -26 12 -40 20 -19 2 5 12 11 23 13
16 2 21 -3 23 -31 3 -27 -2 -39 -19 -52 -13 -9 -29 -14 -38 -11 -12 4 -12 1 2
-18 9 -14 17 -34 17 -46 0 -12 7 -27 15 -34 9 -7 15 -30 16 -54 0 -36 1 -38
10 -17 32 81 112 131 207 131 76 0 145 -21 192 -59 35 -28 42 -29 96 -25 63 6
117 -8 112 -28 -2 -7 7 -27 20 -45 20 -28 26 -31 48 -23 32 12 65 12 83 1 23
-15 -5 -41 -44 -41 -42 0 -82 -45 -91 -101 -5 -30 -11 -39 -26 -39 -10 0 -16
-4 -13 -10 3 -5 -1 -10 -9 -10 -8 0 -21 -8 -28 -17 -32 -43 -59 -14 -37 39 13
32 20 139 9 148 -12 10 -59 98 -55 102 3 3 -2 5 -9 5 -11 0 -12 -5 -5 -18 5
-10 9 -41 9 -70 0 -46 -4 -55 -35 -84 -24 -24 -55 -38 -104 -51 l-69 -18 29
-37 c31 -40 38 -79 14 -79 -8 0 -15 -4 -15 -10 0 -5 -7 -10 -15 -10 -18 0 -40
-39 -28 -51 5 -5 22 -5 40 0 27 8 32 6 37 -12 5 -17 8 -19 15 -8 5 8 11 9 15
3 3 -6 0 -12 -6 -15 -21 -7 7 -30 37 -30 20 1 24 -3 20 -18 -4 -11 -2 -19 4
-19 6 0 11 -9 11 -20 0 -15 7 -20 25 -20 15 0 25 6 25 15 0 21 30 8 63 -29 17
-18 27 -24 23 -13 -5 15 -2 16 14 7 26 -14 35 -31 21 -39 -6 -4 4 -7 22 -7 59
0 84 -12 101 -48 22 -47 37 -55 30 -16 -6 27 -4 30 17 29 22 0 22 -1 5 -8 -14
-5 -16 -10 -8 -15 7 -4 17 -4 22 -1 6 3 10 -2 10 -12 1 -10 15 -27 33 -38 22
-14 33 -30 35 -49 3 -23 6 -26 14 -15 8 12 9 12 5 -1 -2 -8 -13 -16 -25 -18
-12 -2 -22 -8 -22 -13 0 -5 -5 -9 -11 -9 -6 0 -8 9 -4 22 3 13 3 19 -2 13 -4
-5 -17 -10 -28 -10 -19 1 -44 -21 -45 -37 0 -5 9 -8 21 -8 12 0 17 -4 13 -11
-4 -7 3 -6 17 2 13 7 32 12 42 10 9 -1 17 2 17 8 0 7 8 7 26 1 22 -9 36 -5 84
21 l57 32 -14 61 c-7 34 -18 63 -23 64 -15 5 -12 48 5 89 8 19 15 44 15 54 0
30 24 22 78 -26 52 -46 52 -48 244 -428 l89 -178 47 7 c26 4 88 19 137 33 l90
26 6 60 c4 33 7 567 8 1186 1 961 -1 1128 -13 1138 -8 7 -44 87 -79 179 -81
208 -85 221 -97 301 -6 36 -22 101 -36 145 -20 60 -25 91 -21 135 3 43 0 65
-16 96 -11 22 -25 43 -31 47 -6 4 -38 5 -72 2 -51 -5 -62 -4 -67 10 -4 9 -16
16 -27 16 -11 0 -20 4 -20 9 0 5 -7 11 -16 13 -12 2 -32 48 -65 147 -63 186
-94 220 -174 187 -27 -12 -48 -13 -90 -6 -65 11 -71 13 -78 40 -3 13 1 24 14
30 10 6 19 15 19 19 0 11 -87 61 -106 61 -19 0 -18 -34 1 -50 8 -7 15 -19 15
-28 0 -8 12 -31 27 -50 17 -23 27 -48 26 -69 0 -19 5 -33 11 -33 7 0 20 -6 29
-13 16 -11 13 -12 -20 -14 -45 -1 -145 -53 -103 -53 17 0 21 -3 13 -11 -6 -6
-19 -9 -29 -7 -34 6 -25 28 25 55 46 26 71 53 36 39 -8 -3 -15 -1 -15 4 0 6
-7 10 -15 10 -8 0 -15 -4 -15 -10 0 -5 -6 -10 -12 -10 -17 -1 -126 -70 -110
-70 26 0 10 -18 -20 -23 -18 -3 -41 -8 -51 -12 -10 -4 -17 -4 -16 1 4 22 -2
33 -14 28 -14 -5 -57 81 -57 112 0 8 -7 14 -15 14 -15 0 -20 -16 -16 -56 2
-29 -52 -74 -90 -74 -16 0 -30 1 -31 2 -2 2 -13 -4 -24 -12 -16 -11 -38 -14
-85 -10 -38 3 -78 0 -99 -7 -48 -17 -89 -16 -106 2 -21 21 -45 19 -38 -2 3
-10 -4 0 -15 21 -25 47 -25 47 -6 40 19 -8 19 5 0 27 -15 15 -13 16 31 8 25
-5 57 -6 70 -3 29 7 34 -19 7 -35 -16 -9 -15 -10 5 -11 33 0 95 28 87 40 -3 5
-13 10 -21 10 -8 0 -13 -4 -10 -9 4 -5 -3 -7 -13 -4 -11 3 -18 10 -15 17 6 17
99 66 125 66 l22 0 -23 25 c-27 28 -43 27 -130 -12 -52 -24 -58 -24 -115 -12
-33 7 -53 15 -44 17 9 1 36 -2 60 -7 39 -9 50 -7 104 19 33 16 75 34 93 41 18
6 39 24 47 39 8 15 26 31 41 34 14 4 24 10 20 13 -10 10 -307 2 -360 -10 -28
-6 -77 -12 -110 -13 -47 -1 -70 -9 -121 -39 -57 -33 -63 -40 -70 -78 -12 -75
-6 -276 10 -315 l15 -35 -53 -51 c-29 -28 -82 -84 -118 -124 -51 -59 -71 -74
-100 -78 -33 -6 -37 -4 -44 22 -4 16 -9 81 -11 144 -1 63 -3 116 -3 118 -1 2
-8 -4 -17 -12 -8 -9 -21 -16 -28 -16 -34 0 -85 -86 -86 -144 0 -11 -7 -28 -16
-37 -9 -10 -16 -30 -16 -44 0 -14 -4 -25 -9 -25 -5 0 -9 -7 -9 -15 0 -8 -5
-15 -11 -15 -7 0 -8 -13 -4 -39 5 -33 3 -41 -18 -58 -30 -23 -43 -59 -27 -78
9 -11 7 -18 -7 -32 -15 -15 -17 -23 -9 -36 8 -12 5 -22 -13 -41 -18 -19 -22
-31 -16 -55 11 -52 -15 -99 -28 -50 -5 20 -7 20 -22 5 -21 -21 -23 -20 -23 7
-1 50 -16 89 -39 104 -13 9 -26 13 -30 9 -3 -3 -12 -1 -20 5 -7 6 -14 9 -14 5
-1 -3 -3 -10 -4 -16 -1 -5 -4 -22 -5 -37 -3 -28 -6 -13 -24 122 -14 98 -27
135 -49 135 -21 0 -54 -32 -67 -65 -4 -11 -8 -54 -9 -95 -1 -41 -4 -90 -7
-108 -10 -52 -26 -23 -31 54 -2 37 -5 70 -8 72 -2 3 -26 -2 -52 -11 -26 -9
-49 -15 -50 -13 -3 3 -16 179 -15 211 0 32 -19 75 -34 75 -22 0 -64 -22 -58
-31 3 -5 -1 -6 -9 -3 -8 3 -17 -3 -21 -13 -4 -10 -2 -19 3 -21 6 -2 8 -8 5
-14 -4 -6 2 -8 17 -3 16 4 20 3 11 -3 -11 -7 -11 -12 2 -25 9 -8 16 -24 16
-34 0 -11 6 -25 13 -32 10 -10 3 -12 -35 -10 -43 2 -48 5 -48 26 0 14 4 21 10
18 16 -10 12 51 -5 65 -12 10 -15 9 -17 -6 0 -11 0 -27 0 -37 1 -10 -2 -16 -7
-12 -5 3 -12 -5 -16 -17 -19 -73 -30 -105 -42 -123 -7 -11 -13 -34 -13 -52 0
-17 -5 -56 -11 -85 -9 -43 -21 -62 -62 -102 -66 -66 -94 -130 -113 -262 -14
-92 -14 -109 -2 -118 11 -9 98 -256 98 -280 0 -3 -18 -6 -39 -6 -39 0 -39 0
-31 -29 10 -36 6 -41 -37 -41 -30 0 -33 -2 -23 -19 16 -30 13 -116 -5 -131 -9
-7 -13 -15 -10 -18 3 -3 12 3 20 14 13 17 14 15 13 -26 0 -25 -3 -35 -5 -22
-2 12 -8 22 -12 22 -4 0 -4 -35 0 -77 4 -42 6 -81 3 -85 -3 -4 -15 -9 -27 -9
-16 -1 -17 -3 -5 -6 15 -4 15 -7 -2 -36 -21 -37 -33 -97 -24 -120 3 -9 20 -21
37 -26 18 -5 39 -12 48 -16 13 -5 22 8 45 65 l28 71 64 -4 c35 -3 65 -7 66 -8
2 -2 13 -34 26 -72 l24 -67 13 31 c7 18 11 34 9 36 -2 3 20 46 49 96 l54 92
-6 91 c-5 77 -3 97 15 137 27 60 69 87 140 87 46 0 57 -4 90 -34 l37 -34 0
-99 c0 -77 -4 -106 -19 -137 -36 -72 -115 -96 -189 -56 -34 18 -36 18 -29 3
62 -127 62 -130 27 -163 -13 -12 -22 -27 -19 -32 4 -5 15 4 25 21 27 44 94 89
144 96 66 10 130 -22 155 -77 11 -24 20 -58 20 -75 0 -32 -2 -33 -40 -33 -36
0 -41 3 -54 34 -8 18 -20 37 -27 42 -18 11 -69 6 -87 -8 -30 -25 -70 -130 -43
-114 5 4 7 -3 4 -15 -4 -13 -8 -17 -13 -9 -11 18 -19 -120 -8 -150 11 -33 31
-40 75 -28 28 7 83 61 83 81 0 4 -16 7 -35 7 -36 0 -36 0 -30 38 11 63 9 62
84 62 80 0 101 -6 101 -29 0 -14 -2 -14 -10 -1 -8 12 -10 9 -10 -12 0 -15 -5
-39 -11 -55 -18 -45 -39 -132 -39 -158 0 -20 -5 -25 -24 -25 -19 0 -25 6 -28
27 l-3 27 -35 -31 c-19 -17 -45 -33 -57 -37 -51 -16 -123 18 -151 71 -14 26
-16 210 -3 266 7 31 7 36 -4 27 -10 -8 -14 -7 -18 2 -4 8 -6 7 -6 -4 -1 -10 4
-18 10 -18 6 0 8 -11 5 -27 -3 -16 -6 -50 -8 -78 -2 -48 -31 -99 -50 -88 -9 5
-3 -101 7 -134 6 -17 2 -22 -17 -25 -17 -2 -22 -9 -20 -24 2 -13 -3 -21 -13
-21 -11 0 -15 7 -12 19 3 10 1 18 -3 18 -5 0 -10 -12 -12 -27 -3 -25 -11 -31
-93 -59 -49 -17 -103 -34 -118 -38 -29 -7 -29 -7 -22 31 4 25 1 51 -10 75 -8
21 -15 50 -15 65 l-1 28 -12 -29 c-12 -28 -16 -30 -68 -27 l-55 2 -29 -98
c-15 -54 -42 -119 -58 -146 -33 -50 -42 -59 -32 -27 6 19 5 19 -37 4 -37 -14
-43 -20 -42 -43 0 -15 4 -34 9 -41 6 -10 3 -12 -13 -8 -15 4 -25 0 -32 -10 -5
-10 -10 -12 -10 -7 0 6 -5 3 -10 -5 -8 -12 -10 -10 -10 8 0 13 3 21 8 19 4 -3
12 0 17 7 13 14 16 48 4 40 -5 -3 -9 -1 -9 5 0 6 -7 8 -15 5 -20 -8 -19 -2 4
38 11 18 24 67 30 109 6 41 19 95 30 120 l20 44 -52 7 c-28 3 -55 4 -59 2 -5
-3 -8 -35 -8 -71 l0 -67 -28 32 c-16 18 -38 32 -50 32 -23 0 -44 -30 -41 -58
3 -39 -2 -92 -9 -92 -9 0 -32 58 -32 79 0 8 6 11 15 7 12 -4 15 3 15 35 0 44
26 99 47 99 7 0 13 5 13 10 0 6 -9 10 -21 10 -21 0 -21 3 -17 131 4 122 3 129
-11 104 -17 -27 -50 -41 -76 -32 -12 5 -11 14 6 64 11 32 33 77 50 101 17 24
30 44 28 46 -8 4 -96 28 -146 39 -31 7 -53 17 -53 24 0 7 -4 13 -9 13 -5 0 -9
10 -9 23 0 12 -3 32 -7 45 -7 21 -5 22 46 22 30 0 74 -5 99 -11 25 -6 56 -13
70 -14 14 -2 54 -8 90 -14 36 -5 100 -13 142 -16 67 -6 82 -11 108 -35 28 -26
44 -28 18 -2 -8 8 -8 15 3 28 8 9 13 25 11 34 -2 10 4 20 13 23 8 4 15 13 15
22 0 12 8 15 33 12 17 -2 24 -2 15 0 -11 3 -15 10 -11 20 4 10 2 14 -5 9 -6
-3 -14 -1 -18 5 -4 7 -3 10 2 6 15 -9 42 17 45 43 5 40 -8 50 -66 50 -48 0
-55 -3 -60 -22 -3 -13 -11 -49 -17 -80 -10 -46 -16 -56 -27 -49 -13 8 -12 24
4 115 12 75 16 126 11 176 -5 46 -4 70 3 70 6 0 8 7 4 16 -5 13 -7 13 -14 2
-6 -9 -9 -7 -9 8 0 17 -5 20 -24 17 -29 -6 -34 1 -63 96 l-23 76 3 -83 c2 -78
1 -82 -19 -82 -17 0 -31 20 -68 91 -25 49 -46 97 -46 105 0 10 -6 13 -19 9
-10 -3 -24 1 -31 10 -7 8 -18 15 -24 15 -7 0 -26 10 -44 23 -17 13 -50 29 -74
36 -93 28 -109 40 -125 94 -15 51 -8 68 26 63 14 -3 51 -8 81 -11 30 -4 65
-14 78 -23 17 -11 38 -13 82 -9 l60 7 0 -70 c0 -55 3 -70 15 -70 13 0 24 -27
40 -108 8 -40 25 -32 25 12 0 65 12 97 38 107 14 6 29 6 34 1 5 -5 15 -42 22
-83 l13 -74 13 65 c14 69 40 103 110 145 52 31 98 129 120 253 14 79 2 106
-79 185 -64 62 -76 93 -60 151 11 40 -5 96 -28 96 -6 0 -13 6 -16 13 -4 9 -7
9 -18 -1 -10 -9 -14 -39 -14 -96 0 -82 1 -84 37 -124 48 -53 57 -98 33 -166
-42 -119 -82 -183 -109 -173 -21 8 -21 68 0 108 8 17 14 33 11 35 -10 11 -49
-50 -84 -130 -21 -49 -43 -91 -50 -93 -6 -2 -17 6 -23 18 -15 26 1 89 31 128
27 34 24 51 -4 21 -35 -39 -57 -77 -57 -100 0 -21 -14 -27 -25 -10 -3 5 -41
21 -83 34 -202 65 -226 76 -204 98 7 7 12 26 12 43 0 16 4 35 8 42 10 16 57
33 91 33 32 0 65 32 75 73 9 38 -11 141 -35 180 -10 18 -19 49 -19 70 0 20 -3
37 -8 37 -4 0 -17 21 -29 48 -13 29 -38 59 -63 77 -91 66 -85 59 -67 86 17 24
25 144 10 151 -15 6 -60 74 -71 107 -7 19 -12 65 -12 103 0 66 -1 70 -40 111
-21 24 -44 56 -50 73 -24 59 -41 139 -35 161 5 21 11 23 82 23 58 0 81 4 97
18 16 13 18 13 8 1 -17 -22 -6 -29 45 -29 30 0 43 4 43 14 0 8 -6 16 -12 19
-18 6 -41 92 -35 125 3 15 10 45 16 67 5 22 12 50 15 62 2 13 9 31 15 40 7 14
9 7 5 -24 -2 -24 -6 -61 -8 -83 -2 -22 0 -43 5 -46 5 -3 9 -15 10 -27 0 -12 3
-16 6 -9 10 24 23 0 23 -43 0 -24 3 -51 6 -60 9 -22 77 -55 116 -55 18 0 40
-5 48 -10 18 -12 -87 -1 -111 11 -9 4 -33 6 -53 2 -27 -4 -36 -11 -36 -25 0
-10 -8 -21 -17 -24 -60 -19 -63 -23 -63 -98 0 -72 18 -353 26 -393 10 -52 91
-26 147 49 49 64 48 134 -1 140 -27 3 -27 4 -27 77 0 72 1 74 34 100 18 14 54
33 80 42 37 13 47 21 52 45 4 16 10 36 13 46 5 10 2 18 -6 21 -24 7 46 -4 87
-15 23 -6 34 -13 25 -16 -21 -6 -63 -53 -75 -82 -6 -14 -9 -39 -7 -57 3 -27
11 -35 48 -53 25 -12 54 -20 64 -17 11 3 20 1 20 -5 0 -6 9 -8 20 -5 11 3 22
1 25 -3 3 -5 35 -18 73 -30 37 -12 70 -26 73 -32 4 -7 34 -3 85 12 152 42 184
64 184 125 0 25 7 34 35 49 42 23 45 36 8 37 -16 0 -37 2 -48 5 -20 4 -68 10
-160 20 -27 3 -81 9 -120 14 -59 7 -52 8 45 4 63 -3 135 -9 160 -14 25 -5 110
-16 190 -25 215 -24 382 -54 409 -73 13 -9 37 -26 55 -37 55 -35 96 -68 96
-79 0 -5 12 -22 26 -37 16 -17 22 -29 15 -33 -6 -4 -11 -2 -11 5 0 8 -4 8 -15
-1 -14 -11 -12 -15 14 -28 25 -12 29 -18 21 -32 -6 -10 -10 -34 -10 -53 0 -25
6 -37 24 -46 20 -11 29 -10 65 9 35 17 52 20 101 14 47 -5 65 -3 84 10 14 9
36 16 50 16 13 0 32 3 41 6 43 17 83 167 92 346 l6 117 -29 35 c-16 19 -45 60
-64 90 -39 64 -60 72 -60 24 0 -48 -16 -22 -32 52 -12 54 -19 67 -41 78 -15 7
-27 17 -27 22 0 11 -57 68 -99 100 -19 14 -45 35 -60 48 -14 13 -54 43 -88 68
-56 40 -70 45 -130 50 -38 3 -86 7 -108 10 -22 2 -78 9 -125 14 -47 5 -116 14
-155 20 -38 6 -71 7 -73 2 -1 -5 -15 -7 -31 -4 -17 2 -34 -2 -44 -13 -10 -9
-17 -12 -17 -6 0 6 -7 11 -16 11 -8 0 -13 -4 -10 -9 7 -11 -75 -35 -83 -24
-11 18 -42 23 -47 9 -10 -25 -106 -2 -132 32 -10 14 -37 18 -140 23 -70 4
-162 12 -205 19 -136 21 -160 9 -266 -134 -37 -50 -99 -125 -138 -166 -82 -89
-173 -213 -173 -236 0 -9 -7 -22 -16 -29 -10 -7 -19 -34 -23 -71 l-6 -59 -29
73 c-15 41 -34 76 -42 79 -22 8 -75 179 -94 303 -7 41 -21 112 -32 157 -18 72
-25 86 -57 110 -20 15 -61 54 -92 86 -49 52 -61 60 -102 64 -46 5 -58 -2 -37
-23 7 -7 5 -17 -5 -30 -11 -15 -14 -16 -15 -4 0 9 -25 27 -60 43 -33 15 -64
36 -70 47 -6 11 -32 26 -58 34 -26 8 -73 26 -105 41 -32 15 -61 25 -64 22 -3
-3 3 -26 12 -52 10 -25 16 -47 14 -50 -12 -11 -48 10 -53 31 -4 13 -11 24 -16
24 -18 0 -10 18 10 23 32 8 23 24 -20 35 -42 10 -54 4 -44 -22 9 -23 1 -20
-53 17 -47 32 -50 32 -178 35 -194 4 -238 8 -273 26 -38 19 -57 20 -100 1z
m923 -265 c-3 -5 -1 -10 5 -10 6 0 21 -10 33 -21 20 -20 21 -21 2 -14 -11 4
-29 9 -40 12 -47 11 -49 13 -29 28 22 17 38 19 29 5z m-742 -172 c53 -9 73 -9
88 0 26 17 84 15 99 -3 10 -12 9 -15 -6 -16 -11 -1 5 -5 34 -10 33 -6 60 -5
71 0 21 12 117 -13 145 -38 14 -12 20 -13 23 -3 6 17 62 15 114 -4 24 -9 64
-21 89 -28 54 -15 250 -97 250 -105 0 -3 -16 -16 -34 -28 -31 -20 -35 -20 -41
-5 -5 14 -7 14 -15 2 -8 -13 -10 -13 -10 0 0 26 -224 98 -445 144 -254 52
-641 95 -725 81 -43 -7 -59 11 -17 19 12 3 31 7 42 9 34 8 266 -3 338 -15z
m1151 -86 l21 -23 -28 5 c-28 5 -28 5 -13 -19 9 -13 16 -37 15 -52 0 -15 -3
-22 -6 -15 -4 10 -8 10 -19 1 -8 -6 -14 -8 -14 -3 0 5 -4 3 -9 -5 -8 -12 -12
-12 -25 -2 -9 7 -21 9 -28 5 -7 -5 -15 -9 -18 -10 -13 -2 -46 -18 -50 -24 -7
-9 -94 -50 -107 -50 -6 0 46 56 116 125 106 105 127 122 135 107 5 -9 18 -27
30 -40z m1176 28 c22 -31 20 -50 -7 -50 -11 0 -14 -7 -11 -24 4 -21 -7 -36
-25 -36 -1 0 -1 31 1 70 2 38 7 70 12 70 5 0 18 -13 30 -30z m-2560 -1 c0 -14
-27 -10 -33 5 -4 10 0 12 14 9 10 -3 19 -9 19 -14z m36 1 c8 0 14 5 14 10 0 6
9 10 20 10 11 0 20 -4 20 -10 0 -5 -6 -10 -14 -10 -8 0 -16 -4 -18 -10 -5 -16
-48 1 -47 19 0 10 2 11 6 4 2 -7 11 -13 19 -13z m110 3 c1 -10 3 -34 6 -53 3
-19 3 -27 1 -17 -2 9 -8 15 -13 12 -4 -3 -10 13 -12 35 -2 24 1 40 7 40 6 0
11 -8 11 -17z m2877 -23 c5 -19 7 -49 5 -66 -4 -31 -3 -32 32 -28 34 3 34 3 5
-5 -16 -5 -52 -8 -80 -8 -27 0 -36 2 -20 4 l30 4 0 69 c0 74 13 87 28 30z
m-2612 0 c16 0 76 -16 133 -35 58 -19 124 -35 148 -35 24 0 52 -7 63 -16 12
-9 31 -13 50 -9 l30 5 -27 -11 c-20 -8 -34 -7 -57 5 -16 9 -49 16 -72 16 -48
0 -154 27 -182 46 -20 13 -77 1 -77 -17 0 -5 -10 -9 -22 -9 -19 0 -20 2 -8 10
13 9 13 11 -1 20 -9 5 -27 18 -40 30 l-24 20 28 -10 c16 -5 41 -10 58 -10z
m2186 -2 c-3 -8 -6 -5 -6 6 -1 11 2 17 5 13 3 -3 4 -12 1 -19z m-2108 -47 c10
-7 7 -9 -12 -8 -14 1 -23 5 -20 10 6 9 15 9 32 -2z m1800 -20 c27 -11 74 -21
105 -22 40 -2 67 -9 92 -26 47 -33 90 -38 153 -19 57 17 131 12 166 -10 24
-16 210 -23 300 -12 33 5 66 4 73 0 20 -13 27 -79 12 -108 -10 -18 -22 -24
-46 -24 -18 0 -56 -5 -84 -11 -46 -10 -50 -13 -50 -40 0 -21 5 -29 18 -29 14
0 18 -10 20 -54 l3 -53 -37 -6 c-28 -5 -68 3 -153 29 -167 52 -208 63 -281 75
-106 18 -127 20 -110 9 8 -5 11 -12 7 -17 -10 -9 -43 11 -40 25 1 5 -42 19
-95 31 -53 12 -106 26 -117 31 -11 5 -32 11 -46 14 -28 6 -28 5 -45 142 -5 44
-3 55 15 73 27 27 74 27 140 2z m-1665 -32 c-4 -8 4 -9 27 -5 25 4 29 4 14 -3
-17 -8 -18 -10 -2 -10 9 -1 17 -5 17 -11 0 -13 4 -13 -55 9 -44 17 -47 20 -25
24 14 2 26 5 28 6 2 0 0 -4 -4 -10z m-56 -89 c0 -15 -5 -7 -12 20 -7 25 -10
50 -7 55 6 11 18 -37 19 -75z m2920 50 c6 0 12 -9 12 -21 0 -13 4 -18 12 -13
6 4 8 3 5 -3 -4 -6 13 -41 38 -78 80 -119 73 -141 -58 -185 -48 -17 -90 -30
-92 -30 -7 0 -6 71 1 97 3 11 15 23 26 26 14 4 19 12 16 32 -3 24 -8 28 -42
31 -45 4 -54 10 -38 26 20 20 14 35 -23 57 -36 21 -42 35 -26 60 13 21 100 29
131 14 14 -7 31 -13 38 -13z m-3430 13 c-10 -2 -28 -2 -40 0 -13 2 -5 4 17 4
22 1 32 -1 23 -4z m3219 -39 c-3 -3 -12 -4 -19 -1 -8 3 -5 6 6 6 11 1 17 -2
13 -5z m-2690 -26 c-3 -8 -6 -5 -6 6 -1 11 2 17 5 13 3 -3 4 -12 1 -19z m463
2 c0 -5 -2 -10 -4 -10 -3 0 -8 5 -11 10 -3 6 -1 10 4 10 6 0 11 -4 11 -10z
m2640 -157 c0 -8 11 -33 25 -57 21 -35 24 -52 21 -103 -4 -54 -10 -75 -38
-123 -5 -8 -11 -22 -14 -30 -5 -14 -28 -31 -90 -66 -17 -9 -32 -8 -74 7 -29
10 -55 20 -57 23 -3 3 27 21 110 64 31 16 77 58 77 71 0 5 6 11 14 14 23 9 31
108 13 178 -12 50 -13 58 -1 48 8 -6 14 -18 14 -26z m-3353 -104 c9 -9 8 -15
-3 -26 -8 -8 -14 -22 -14 -32 0 -10 -9 -26 -20 -36 -11 -10 -17 -21 -15 -25 3
-4 -1 -13 -8 -19 -10 -7 -17 -5 -29 9 -18 20 -19 17 32 77 5 7 10 17 10 23 0
5 5 10 11 10 6 0 9 7 5 15 -6 18 15 20 31 4z m793 1 c13 -9 13 -10 0 -9 -8 0
-24 4 -35 9 l-20 9 20 0 c11 0 27 -4 35 -9z m1363 -117 c-13 -2 -33 -2 -45 0
-13 2 -3 4 22 4 25 0 35 -2 23 -4z m-2253 -38 c0 -9 6 -12 18 -8 12 4 9 -3
-10 -23 -15 -15 -31 -25 -35 -20 -4 4 -1 11 6 15 8 5 11 17 6 30 -4 12 -2 21
4 21 6 0 11 -7 11 -15z m2310 -25 c0 -11 -3 -20 -6 -20 -3 0 -17 9 -31 20
l-26 20 32 0 c24 0 31 -4 31 -20z m-2520 -10 c30 -16 25 -25 -22 -37 -60 -16
-98 -7 -98 22 0 14 7 25 18 28 25 6 78 0 102 -13z m-158 -12 c-7 -7 -12 -8
-12 -2 0 14 12 26 19 19 2 -3 -1 -11 -7 -17z m2963 12 c-11 -5 -15 -9 -10 -10
6 0 2 -5 -8 -11 -20 -12 -37 -4 -37 17 0 10 11 14 38 13 30 0 33 -2 17 -9z
m-2272 -23 c-9 -16 -10 -69 -1 -94 9 -27 -7 -32 -16 -6 -5 11 -10 13 -14 7 -4
-6 -27 -14 -51 -18 -57 -9 -100 -35 -108 -65 -5 -19 1 -30 28 -53 19 -16 45
-33 58 -39 22 -9 23 -13 18 -70 -7 -79 12 -142 58 -194 39 -43 55 -75 55 -106
0 -15 -7 -19 -30 -19 -40 0 -73 22 -139 93 -30 32 -77 73 -105 92 -88 58 -137
69 -175 38 -19 -16 -20 -22 -9 -61 11 -43 10 -45 -23 -77 -19 -18 -46 -35 -61
-39 -24 -5 -27 -3 -30 21 -3 27 -6 28 -52 26 -27 -1 -53 -6 -59 -12 -16 -16
-60 -14 -93 4 -28 14 -26 15 48 15 83 0 124 11 144 38 20 25 17 66 -6 87 -14
13 -20 14 -20 5 0 -7 -3 -10 -6 -7 -4 4 -1 13 5 21 14 17 1 50 -24 60 -8 3
-14 9 -13 14 5 15 -36 82 -52 83 -11 1 -10 3 3 6 19 5 22 18 6 28 -11 7 -5 65
12 123 9 27 16 32 42 33 18 1 67 3 111 5 70 3 79 1 83 -15 5 -18 6 -18 25 1
17 17 29 20 77 15 35 -3 49 -2 36 4 -16 6 -13 8 15 7 19 0 59 2 88 6 31 3 52
2 52 -4 0 -6 9 -10 20 -10 11 0 20 -4 20 -10 0 -5 -8 -10 -17 -10 -15 0 -15
-2 -4 -9 16 -10 61 6 61 22 0 6 -7 18 -15 27 -15 16 -11 55 4 46 4 -3 13 -1
21 4 17 11 42 1 33 -13z m436 -22 c0 -5 -4 -3 -9 5 -5 8 -9 22 -9 30 0 16 17
-16 18 -35z m1421 30 c11 -13 10 -14 -4 -9 -9 3 -16 10 -16 15 0 13 6 11 20
-6z m90 6 c0 -5 8 -12 18 -14 10 -3 6 -5 -10 -6 -19 -1 -28 4 -28 14 0 8 5 15
10 15 6 0 10 -4 10 -9z m1275 -36 c-8 -21 -18 -36 -21 -33 -2 3 3 22 12 42 23
47 30 39 9 -9z m-65 -20 c-24 -25 -48 -45 -53 -45 -6 0 12 21 39 48 62 59 73
57 14 -3z m-1071 36 c12 -8 10 -12 -12 -22 -22 -10 -30 -10 -40 0 -21 21 23
40 52 22z m1722 -24 c-13 -13 -26 -3 -16 12 3 6 11 8 17 5 6 -4 6 -10 -1 -17z
m-1817 -2 c-3 -7 -20 -15 -38 -17 -26 -3 -32 0 -29 12 3 9 17 16 38 17 24 1
32 -2 29 -12z m1276 -81 c0 -20 -3 -22 -22 -15 -24 9 -34 32 -24 58 6 14 9 14
26 -2 11 -10 20 -29 20 -41z m-2820 16 c0 -5 -5 -10 -11 -10 -5 0 -7 5 -4 10
3 6 8 10 11 10 2 0 4 -4 4 -10z m3759 -16 c-32 -18 -50 -17 -43 0 6 15 42 26
58 18 5 -3 -2 -11 -15 -18z m-3705 0 c3 -8 2 -12 -4 -9 -6 3 -10 10 -10 16 0
14 7 11 14 -7z m4500 -29 c8 -21 -21 -6 -49 25 l-20 23 31 -16 c17 -9 34 -23
38 -32z m-4531 10 c4 -8 2 -17 -3 -20 -6 -4 -10 -4 -10 -1 0 2 -3 11 -6 20 -3
9 -2 16 4 16 5 0 12 -7 15 -15z m3667 -10 c-7 -8 -24 -15 -39 -15 l-26 0 25
14 c36 20 56 20 40 1z m-170 -35 c13 -9 13 -10 0 -10 -8 0 -22 5 -30 10 -13 9
-13 10 0 10 8 0 22 -5 30 -10z m-726 -30 c-6 -6 -19 -7 -30 -3 -17 6 -17 8 6
13 29 8 38 4 24 -10z m92 -23 c-3 -14 -14 -23 -26 -24 -20 -2 -20 0 -8 20 8
12 18 29 23 37 12 19 19 -3 11 -33z m-4032 7 c10 -37 2 -39 -11 -4 -6 17 -8
30 -3 30 4 0 11 -12 14 -26z m1206 22 c0 -3 -4 -8 -10 -11 -5 -3 -10 -1 -10 4
0 6 5 11 10 11 6 0 10 -2 10 -4z m4270 -36 c0 -5 -4 -10 -10 -10 -5 0 -10 5
-10 10 0 6 5 10 10 10 6 0 10 -4 10 -10z m230 1 c0 -8 -111 -23 -119 -16 -2 3
7 9 20 14 30 12 99 14 99 2z m-445 -21 c7 -12 -12 -12 -40 0 -18 8 -17 9 7 9
15 1 30 -3 33 -9z m45 0 c0 -5 -5 -10 -11 -10 -5 0 -7 5 -4 10 3 6 8 10 11 10
2 0 4 -4 4 -10z m-4866 -239 c3 -5 -3 -11 -15 -14 -16 -4 -18 -3 -8 9 13 16
16 17 23 5z m5756 -6 c0 -21 -28 -33 -91 -40 l-54 -5 60 29 c69 34 85 37 85
16z m-1308 -21 c-14 -10 -30 -13 -45 -8 l-22 8 25 7 c14 4 34 7 45 8 18 1 18
0 -3 -15z m308 -3 c0 -5 -7 -17 -17 -26 -15 -16 -15 -17 8 -13 16 2 24 9 24
23 0 16 6 19 30 17 17 -2 32 -8 33 -13 2 -5 10 -9 18 -9 21 0 17 -27 -6 -33
-13 -3 -20 -14 -20 -31 0 -18 -4 -24 -15 -20 -8 4 -15 1 -15 -5 0 -6 10 -11
22 -11 12 0 35 -16 55 -39 27 -33 41 -40 84 -46 97 -14 120 -61 84 -173 -9
-27 -15 -71 -13 -98 3 -52 5 -54 81 -69 17 -3 25 -10 21 -17 -4 -6 -3 -8 4 -4
6 3 21 -4 32 -16 19 -20 21 -31 17 -84 -2 -34 0 -68 5 -75 8 -11 9 -11 5 2 -3
9 6 25 24 40 16 13 29 30 29 39 0 9 5 7 16 -8 9 -13 23 -22 32 -21 40 4 45 -1
24 -20 -12 -10 -22 -25 -22 -33 0 -15 -31 -35 -64 -40 -11 -2 -21 -9 -24 -17
-3 -10 0 -12 12 -8 21 8 20 -1 -1 -27 -10 -12 -11 -15 -3 -8 21 18 29 15 28
-10 0 -41 -8 -69 -18 -63 -6 3 -7 -1 -3 -10 4 -12 8 -13 13 -4 5 6 15 9 25 6
9 -4 13 -11 10 -17 -3 -5 3 -10 14 -10 11 0 23 -4 26 -10 3 -5 14 -10 24 -10
10 0 18 -7 18 -15 0 -18 -23 -20 -31 -2 -3 6 -3 2 -1 -9 5 -17 -1 -24 -27 -35
-64 -25 -83 -34 -131 -63 -26 -16 -51 -25 -55 -21 -4 3 -10 32 -13 63 l-6 57
-2 -56 c-1 -45 3 -60 20 -75 27 -24 59 -87 59 -115 0 -19 -4 -21 -37 -16 -21
4 -40 12 -42 19 -10 29 -60 68 -88 68 -81 0 -121 -122 -74 -227 31 -66 101
-93 141 -53 32 32 26 57 -15 64 -33 7 -35 9 -35 48 0 40 0 40 31 34 17 -3 46
-6 63 -6 56 0 58 -5 50 -134 -7 -113 -7 -116 -30 -116 -19 0 -24 5 -24 27 l0
26 -26 -24 c-52 -49 -160 -18 -217 61 -15 21 -36 72 -46 112 -11 40 -20 68
-20 62 -1 -6 -12 -16 -25 -22 l-25 -11 21 -73 c11 -40 25 -81 30 -91 14 -26 5
-30 -45 -23 -41 6 -45 9 -57 49 -7 23 -17 45 -24 49 -6 4 -43 8 -82 8 l-71 0
-12 -41 c-14 -47 -26 -53 -85 -45 l-44 7 64 166 c103 270 100 258 70 293 -46
56 -47 165 0 215 24 27 25 27 7 66 -16 37 -19 39 -60 39 -37 0 -44 -4 -58 -30
-14 -27 -14 -30 0 -30 9 0 27 -11 40 -25 29 -28 34 -85 11 -108 -9 -9 -11 -18
-6 -23 6 -6 14 -38 18 -72 l9 -63 -26 3 c-23 3 -27 8 -32 51 -3 27 -12 53 -20
58 -16 10 -56 13 -46 3 3 -4 -10 -27 -30 -51 -30 -36 -34 -46 -22 -54 8 -5 17
-9 21 -9 14 0 38 -59 38 -93 0 -19 -9 -46 -20 -60 l-20 -26 25 -25 c34 -34 36
-120 4 -160 l-21 -27 20 -22 c40 -43 43 -70 14 -113 -32 -47 -35 -49 -94 -96
-25 -21 -52 -38 -60 -38 -25 0 -40 40 -33 89 6 43 -13 120 -34 142 -3 4 -32 9
-64 12 -55 5 -57 5 -51 -17 3 -13 -1 -38 -9 -57 l-14 -34 -5 33 c-3 25 -1 32
9 28 14 -6 18 6 6 18 -4 4 -6 50 -5 103 3 79 1 98 -14 114 -15 17 -15 23 -4
47 15 31 18 60 8 83 -4 9 -4 20 0 24 11 11 8 324 -3 329 -6 3 -3 9 5 15 12 9
12 13 2 19 -7 5 -14 22 -15 38 -2 23 2 29 18 28 11 -1 29 -5 39 -10 17 -7 18
-4 11 32 -4 21 -17 63 -29 92 -13 31 -21 65 -18 82 4 25 9 30 33 30 24 0 29
-5 34 -34 5 -22 14 -36 26 -39 10 -3 19 -1 19 4 0 5 -6 9 -14 9 -7 0 -17 15
-22 33 -8 25 -16 33 -37 35 -23 3 -26 6 -16 18 8 10 8 14 0 14 -23 0 -10 18
21 26 43 13 56 56 39 125 -12 45 -11 52 5 70 10 12 33 27 50 34 18 7 37 26 45
44 8 17 19 29 25 27 6 -2 18 1 25 7 10 10 10 9 0 -6 -12 -15 -11 -20 4 -37 10
-11 22 -17 28 -13 6 4 7 1 2 -7 -6 -10 -4 -12 9 -7 14 6 15 4 5 -15 -9 -16
-13 -18 -20 -7 -14 23 -10 0 6 -30 8 -16 21 -31 30 -34 11 -5 15 -21 15 -61 0
-29 6 -69 14 -87 9 -22 11 -41 5 -56 -5 -13 -5 -23 0 -23 4 0 -10 -54 -32
-119 -36 -109 -38 -121 -24 -135 8 -9 28 -16 44 -16 15 0 23 4 17 8 -7 5 5 46
37 127 l47 120 38 0 c36 0 38 -2 50 -45 7 -25 24 -74 37 -110 21 -55 28 -65
48 -65 22 0 24 4 24 43 0 41 8 55 18 30 3 -7 6 8 6 33 1 46 0 47 -34 53 -29 6
-35 11 -35 33 0 25 0 25 68 19 43 -4 60 -3 46 3 -21 9 -54 66 -54 94 0 32 33
28 68 -8 56 -57 122 -44 122 24 0 48 -20 66 -82 75 -73 11 -127 78 -107 132 9
26 -10 34 -83 34 -27 0 -48 4 -48 9 0 15 144 7 158 -9 9 -10 11 -10 6 -1 -5
10 -1 11 14 7 15 -5 21 -1 24 18 3 14 2 29 -2 33 -4 4 -5 27 -2 51 3 33 8 42
24 42 10 0 16 5 13 10 -3 6 -1 10 4 10 6 0 11 -4 11 -9z m-210 -61 c-10 -19 6
-50 25 -50 8 0 15 -5 15 -10 0 -6 -18 -10 -43 -8 -39 3 -43 5 -39 25 5 26 0
28 -29 13 -24 -13 -24 -27 -1 -33 15 -4 15 -5 0 -6 -24 -1 -32 17 -16 36 11
15 11 16 -4 10 -11 -4 -28 2 -45 17 l-28 24 40 7 c22 4 51 10 65 14 32 10 72
-16 60 -39z m-4654 -34 c-14 -25 -26 -52 -26 -60 0 -10 -9 -16 -22 -16 -20 0
-20 -1 -5 -13 16 -11 16 -14 3 -32 -13 -17 -15 -18 -21 -4 -4 10 -15 14 -33
11 -18 -2 -33 2 -41 12 -11 13 -11 16 2 16 8 0 20 7 27 15 7 9 20 13 28 10 19
-7 62 21 62 40 0 8 4 15 10 15 5 0 12 11 16 25 3 14 11 25 16 25 5 0 -2 -20
-16 -44z m1696 -146 c7 -11 18 -20 25 -20 13 0 38 -39 30 -47 -5 -5 -87 72
-87 82 0 13 21 3 32 -15z m-892 -36 c0 -25 -26 -44 -59 -44 -37 0 -41 22 -9
44 29 21 68 21 68 0z m924 -100 c9 -3 17 -16 17 -28 1 -16 3 -14 9 9 l8 30 1
-28 c1 -29 -23 -63 -49 -69 -16 -3 -21 23 -5 34 7 5 6 8 -1 8 -7 0 -9 11 -6
25 5 28 4 27 26 19z m-851 -86 c9 -5 17 -20 17 -35 0 -25 -1 -26 -50 -20 -48
6 -50 5 -52 -18 -4 -62 -6 -60 52 -65 53 -5 55 -6 55 -35 0 -30 -1 -30 -55
-30 l-55 0 0 -60 0 -60 -40 0 c-39 0 -40 1 -43 40 -2 22 -1 100 3 173 l7 133
72 -7 c39 -4 79 -11 89 -16z m851 -54 c-10 -7 -27 -21 -36 -30 -10 -10 -18
-12 -18 -6 0 6 4 13 8 16 5 3 7 19 4 36 l-5 32 34 -17 c31 -17 32 -18 13 -31z
m1853 14 c-3 -8 -6 -5 -6 6 -1 11 2 17 5 13 3 -3 4 -12 1 -19z m-90 -100 c-3
-8 -6 -5 -6 6 -1 11 2 17 5 13 3 -3 4 -12 1 -19z m633 8 c0 -2 -7 -9 -15 -16
-13 -11 -14 -10 -9 4 5 14 24 23 24 12z m-4805 -16 c3 -5 1 -10 -4 -10 -6 0
-11 5 -11 10 0 6 2 10 4 10 3 0 8 -4 11 -10z m4779 -66 c3 -8 2 -12 -4 -9 -6
3 -10 10 -10 16 0 14 7 11 14 -7z m-4054 -24 c8 -5 11 -12 8 -16 -4 -3 -14 1
-23 10 -18 17 -9 21 15 6z m2999 -90 c19 -35 22 -52 19 -130 -3 -100 -4 -100
80 -100 40 0 42 -1 42 -30 l0 -30 -69 0 c-59 0 -69 -3 -74 -19 -5 -21 24 -31
89 -31 31 0 34 -3 34 -30 l0 -31 -66 7 -65 7 3 -34 c3 -34 3 -34 63 -39 73 -6
84 -12 77 -46 -4 -20 -9 -24 -26 -20 -11 3 -56 6 -99 6 -71 0 -79 2 -84 20 -3
12 -10 19 -16 17 -5 -1 -21 8 -34 21 l-25 24 36 30 c36 29 36 30 36 109 0 46
4 79 10 79 6 0 10 7 10 15 0 8 5 15 10 15 15 0 12 37 -5 71 -17 31 -22 101
-11 137 11 34 40 26 65 -18z m2699 -139 c39 -84 42 -96 29 -106 -35 -25 -39
-63 -27 -225 6 -85 18 -198 26 -251 8 -53 17 -129 20 -170 3 -41 12 -102 20
-137 10 -45 14 -134 14 -305 l0 -242 -20 33 c-27 43 -41 47 -95 27 -36 -14
-48 -15 -60 -5 -8 7 -30 20 -48 30 -26 14 -36 29 -55 86 -13 38 -24 83 -25 99
-2 90 27 497 38 535 13 44 31 169 39 280 8 106 27 255 36 290 6 19 10 60 10
90 0 30 5 73 11 95 l12 40 15 -35 c8 -19 35 -77 60 -129z m-358 129 c0 -5 -5
-10 -11 -10 -5 0 -7 5 -4 10 3 6 8 10 11 10 2 0 4 -4 4 -10z m-6050 -134 c0
-11 -19 -15 -25 -6 -3 5 1 10 9 10 9 0 16 -2 16 -4z m1600 -66 c18 -27 10 -31
-52 -29 l-63 2 1 -55 c2 -82 6 -88 61 -88 69 0 93 -9 93 -33 0 -19 -4 -20 -75
-14 l-75 5 0 -88 c0 -102 -5 -120 -31 -120 -18 0 -19 11 -19 218 0 120 2 221
4 223 3 2 37 2 76 -1 47 -4 74 -10 80 -20z m1953 -7 c34 -5 38 -9 35 -32 -3
-23 -8 -26 -45 -29 l-43 -3 -2 -97 c0 -53 -2 -104 -2 -112 -1 -10 -12 -15 -36
-14 l-35 0 0 112 0 112 -27 1 c-16 1 -34 2 -40 3 -7 0 -14 16 -16 34 l-3 32
88 0 c48 0 105 -3 126 -7z m-3486 -90 c-2 -16 -4 -5 -4 22 0 28 2 40 4 28 2
-13 2 -35 0 -50z m3966 51 c32 -4 52 -13 62 -27 19 -27 19 -77 2 -102 -10 -13
-12 -39 -9 -92 l5 -75 -29 4 c-27 3 -29 6 -32 53 -3 52 -13 65 -48 65 -22 0
-34 -31 -34 -86 0 -19 -5 -24 -24 -24 -14 0 -27 3 -29 8 -5 9 11 261 18 281 4
9 15 11 38 8 17 -3 53 -9 80 -13z m-1579 -269 c-6 -36 -6 -36 20 -24 18 9 23
16 16 23 -18 18 -11 38 13 34 17 -2 22 -10 22 -31 1 -16 7 -32 15 -37 21 -14
50 -12 50 3 1 33 35 55 93 59 l57 5 0 -44 c0 -31 -3 -42 -12 -37 -8 5 -9 0 -5
-17 3 -13 4 -33 1 -45 -5 -20 -15 -23 -82 -30 -123 -12 -171 -9 -186 11 -8 11
-20 16 -30 12 -13 -5 -16 1 -16 38 0 25 4 53 9 63 5 9 12 25 15 35 10 33 27
18 20 -18z m1038 -39 c28 -14 44 -32 64 -73 24 -48 26 -62 21 -123 -10 -115
-66 -170 -174 -170 -123 0 -193 103 -164 241 28 128 135 181 253 125z m-573 3
c55 -19 77 -90 46 -150 -19 -36 -50 -49 -115 -49 -50 0 -60 -9 -60 -53 0 -12
-5 -39 -11 -60 -9 -32 -13 -36 -28 -27 -17 9 -18 13 -4 52 8 23 19 80 24 127
5 47 12 105 15 129 l5 42 48 0 c26 0 62 -5 80 -11z m1189 -44 c6 -3 12 -11 12
-19 0 -12 -17 -16 -77 -18 l-78 -3 -3 -52 -3 -53 60 0 c54 0 61 -2 61 -20 0
-18 -7 -20 -64 -20 l-64 0 -6 -40 c-3 -22 -9 -58 -12 -80 -4 -25 -11 -40 -20
-40 -8 0 -14 2 -14 5 0 15 31 294 36 323 l5 33 77 -6 c42 -4 83 -8 90 -10z
m1987 -85 c-27 -12 -43 -12 -25 0 8 5 22 9 30 9 10 0 8 -3 -5 -9z m-11 -32
c-3 -4 -14 -8 -25 -8 -11 0 -18 4 -14 9 3 6 14 9 25 8 10 -1 16 -5 14 -9z
m-1283 -91 c-13 -13 -15 21 -3 50 6 15 8 13 10 -11 2 -16 -1 -33 -7 -39z
m-1571 -32 c7 -9 8 -15 2 -15 -5 0 -12 7 -16 15 -3 8 -4 15 -2 15 2 0 9 -7 16
-15z m2523 -2 c-4 -11 -3 -14 5 -9 7 4 12 3 12 -2 0 -9 -30 -26 -35 -20 -4 5
14 48 19 48 3 0 2 -7 -1 -17z m-663 -43 c0 -5 -5 -10 -11 -10 -5 0 -7 5 -4 10
3 6 8 10 11 10 2 0 4 -4 4 -10z m51 -43 c-10 -9 -11 -8 -5 6 3 10 9 15 12 12
3 -3 0 -11 -7 -18z m-2334 -9 c-3 -8 -6 -5 -6 6 -1 11 2 17 5 13 3 -3 4 -12 1
-19z m-594 -138 c13 -60 15 -94 7 -170 l-9 -95 4 98 c2 59 0 97 -6 97 -6 0 -7
-9 -4 -21 5 -14 3 -19 -3 -15 -7 4 -10 -19 -10 -65 0 -39 -3 -73 -6 -76 -3 -4
-6 81 -5 188 0 112 4 181 9 164 4 -16 14 -64 23 -105z m2841 86 c45 15 66 13
66 -6 0 -10 6 -21 13 -23 9 -4 8 -8 -3 -16 -11 -8 -17 -6 -22 7 -4 9 -7 13 -7
8 -1 -5 -8 -3 -16 4 -8 7 -23 10 -34 7 -13 -3 -26 5 -40 24 -27 37 -27 50 0
15 16 -20 26 -25 43 -20z m-2019 14 c-3 -5 -12 -10 -18 -10 -7 0 -6 4 3 10 19
12 23 12 15 0z m1730 -70 c-8 -13 1 -13 25 2 29 18 37 1 11 -25 -22 -22 -22
-22 -37 -3 -17 23 -18 36 -3 36 5 0 7 -4 4 -10z m393 -173 c2 -32 -1 -48 -6
-42 -12 12 -23 81 -15 89 14 13 18 3 21 -47z m-268 -7 c0 -25 -5 -40 -12 -40
-7 0 -25 -7 -40 -14 -33 -17 -65 -21 -96 -11 l-23 8 23 16 c20 14 139 80 146
81 1 0 2 -18 2 -40z m-802 -38 c2 -7 -6 -12 -20 -12 -13 0 -29 -5 -36 -12 -9
-9 -12 -6 -12 13 0 22 4 25 32 24 17 -1 34 -7 36 -13z m1802 -42 c0 -5 -4 -10
-10 -10 -5 0 -10 5 -10 10 0 6 5 10 10 10 6 0 10 -4 10 -10z m-3266 -25 c-6
-16 -24 -21 -24 -7 0 11 11 22 21 22 5 0 6 -7 3 -15z m-437 -27 c-3 -8 -6 -5
-6 6 -1 11 2 17 5 13 3 -3 4 -12 1 -19z m3703 12 c0 -5 -4 -10 -10 -10 -5 0
-10 5 -10 10 0 6 5 10 10 10 6 0 10 -4 10 -10z m-3673 -42 c-3 -8 -6 -5 -6 6
-1 11 2 17 5 13 3 -3 4 -12 1 -19z m-40 -60 c-3 -7 -5 -2 -5 12 0 14 2 19 5
13 2 -7 2 -19 0 -25z m4003 -19 c0 -6 -4 -7 -10 -4 -5 3 -10 11 -10 16 0 6 5
7 10 4 6 -3 10 -11 10 -16z m-4797 -67 c-8 -5 4 -16 32 -31 38 -20 45 -29 45
-53 0 -16 4 -27 9 -24 5 3 12 -6 16 -21 4 -19 9 -23 14 -14 6 10 12 9 25 -4 9
-9 16 -22 16 -28 -1 -26 -26 -107 -32 -102 -3 3 -16 1 -29 -4 -13 -5 -18 -10
-11 -10 6 -1 12 -7 12 -14 0 -7 8 -23 17 -36 16 -23 17 -23 24 -5 7 16 8 17 8
2 1 -10 -12 -27 -29 -40 -32 -23 -38 -38 -16 -38 8 0 17 -7 20 -16 4 -9 13
-14 21 -10 8 3 15 2 15 -3 0 -5 -9 -11 -21 -14 -16 -4 -19 -10 -14 -28 4 -13
2 -24 -4 -29 -9 -5 -7 -16 6 -40 13 -23 14 -34 6 -37 -7 -2 -2 -14 13 -30 14
-15 22 -33 19 -41 -3 -10 0 -12 10 -8 10 4 15 -1 15 -14 0 -13 -7 -20 -20 -20
-12 0 -24 -10 -29 -23 -7 -17 -23 -28 -55 -37 -26 -7 -49 -17 -52 -21 -15 -26
-21 2 -22 104 0 105 5 140 22 138 3 -1 6 1 6 4 0 3 0 15 -1 28 -1 21 -1 21 -9
-3 -8 -24 -8 -24 -9 6 -1 19 -13 43 -32 65 -52 57 -61 76 -54 108 3 17 15 33
25 36 22 7 41 106 21 113 -6 2 -11 11 -11 20 0 13 -2 14 -9 4 -16 -25 -21 15
-7 50 8 18 17 54 20 81 5 35 12 47 24 47 12 0 13 -3 5 -8z m5057 -31 c0 -8
-93 -51 -111 -51 -24 0 -4 23 34 40 45 21 77 25 77 11z m-2330 -30 c0 -5 -10
-11 -22 -13 -19 -3 -20 -4 -7 -10 10 -4 25 1 37 12 11 10 23 16 26 13 3 -3 -4
-14 -16 -25 -12 -10 -18 -21 -13 -26 4 -4 10 -1 12 6 5 14 33 16 33 2 0 -5 -5
-10 -11 -10 -5 0 -7 -4 -4 -10 3 -5 -1 -10 -9 -10 -17 0 -46 -26 -46 -42 0 -6
13 -8 30 -6 22 3 30 1 30 -11 0 -9 3 -27 5 -41 5 -24 5 -24 -4 -3 -10 23 -41
22 -41 -1 0 -7 -3 -6 -9 2 -7 11 -9 11 -14 -1 -6 -15 -27 -15 -67 0 -8 4 -23
5 -32 4 -10 -1 -18 4 -18 13 0 17 49 58 60 51 5 -3 11 -1 15 5 4 6 11 7 17 4
7 -5 8 -2 3 6 -16 26 -10 83 11 91 27 11 34 10 34 0z m1650 -36 c0 -8 -4 -15
-10 -15 -5 0 -7 7 -4 15 4 8 8 15 10 15 2 0 4 -7 4 -15z m-1710 -15 c0 -5 -4
-10 -10 -10 -5 0 -10 5 -10 10 0 6 5 10 10 10 6 0 10 -4 10 -10z m163 -33 c-3
-5 -14 -1 -24 9 -11 9 -17 20 -14 23 4 3 10 -1 15 -9 8 -12 10 -11 11 5 l0 20
8 -20 c5 -11 6 -24 4 -28z m1647 23 c0 -5 -5 -10 -11 -10 -5 0 -7 5 -4 10 3 6
8 10 11 10 2 0 4 -4 4 -10z m349 -4 c-14 -7 -36 -15 -50 -18 -13 -3 -33 -9
-44 -13 -17 -7 -18 -6 -7 6 16 17 69 37 102 38 l25 1 -26 -14z m-2019 -64 c0
-47 -16 -58 -23 -16 -4 20 -4 41 -1 46 10 15 24 -3 24 -30z m17 -64 c-3 -7 -5
-2 -5 12 0 14 2 19 5 13 2 -7 2 -19 0 -25z m-1239 -83 c-9 -20 -13 -22 -24
-10 -19 18 -18 31 1 15 16 -14 20 -3 6 19 -6 9 -5 19 2 26 18 19 29 -19 15
-50z m2924 41 c7 4 8 2 4 -4 -11 -18 -26 -14 -25 6 0 10 3 12 6 4 2 -6 10 -9
15 -6z m-1715 -2 c-3 -3 -12 -4 -19 -1 -8 3 -5 6 6 6 11 1 17 -2 13 -5z m1433
-14 c0 -5 -2 -10 -4 -10 -3 0 -8 5 -11 10 -3 6 -1 10 4 10 6 0 11 -4 11 -10z
m345 -48 c-2 -3 -11 0 -18 6 -8 7 -17 9 -21 5 -4 -4 -4 1 0 10 6 17 8 17 25 1
11 -10 17 -19 14 -22z m-3016 -16 c-2 -2 -17 -6 -34 -9 l-30 -6 30 13 c26 12
47 13 34 2z m14 -53 c-2 -21 -7 -40 -11 -43 -4 -3 -18 -29 -31 -57 -14 -29
-26 -53 -29 -53 -2 0 -13 11 -24 25 -11 14 -28 25 -39 25 -14 0 -19 7 -19 28
0 29 12 53 26 54 19 1 34 11 34 22 0 6 17 12 37 12 21 1 39 7 41 13 9 26 19 8
15 -26z m764 -15 c-3 -8 -6 -5 -6 6 -1 11 2 17 5 13 3 -3 4 -12 1 -19z m54
-68 c5 0 9 -9 9 -19 0 -11 4 -22 9 -25 10 -7 2 -56 -9 -56 -5 0 -13 12 -19 28
-10 23 -10 24 -5 2 3 -14 8 -42 9 -62 3 -29 1 -36 -11 -31 -9 3 -14 21 -14 53
0 27 -4 52 -10 55 -5 3 -10 15 -10 26 0 10 -5 19 -10 19 -6 0 -5 6 2 14 7 8
16 12 20 10 4 -2 10 1 15 8 5 10 8 8 11 -4 2 -10 8 -18 13 -18z m-2230 -23
c-1 -4 -1 -14 -1 -22 0 -8 -4 -15 -10 -15 -5 0 -10 7 -10 15 0 8 6 15 13 15 8
0 7 4 -3 11 -10 7 -11 9 -2 7 8 -2 13 -7 13 -11z m2112 -4 c-7 -2 -19 -2 -25
0 -7 3 -2 5 12 5 14 0 19 -2 13 -5z m69 -55 c-7 -7 -12 -8 -12 -2 0 14 12 26
19 19 2 -3 -1 -11 -7 -17z m98 13 c0 -6 -4 -13 -10 -16 -5 -3 -10 1 -10 9 0 9
5 16 10 16 6 0 10 -4 10 -9z m-1009 -161 c-2 -109 -12 -139 -43 -140 -13 0 -8
34 7 54 18 23 19 77 4 120 -8 23 -8 39 1 61 11 28 12 29 22 10 6 -10 10 -57 9
-105z m999 99 c0 -6 -4 -7 -10 -4 -5 3 -10 11 -10 16 0 6 5 7 10 4 6 -3 10
-11 10 -16z m-130 -49 c0 -5 -2 -10 -4 -10 -3 0 -8 5 -11 10 -3 6 -1 10 4 10
6 0 11 -4 11 -10z m180 -50 c0 -5 -4 -10 -10 -10 -5 0 -10 5 -10 10 0 6 5 10
10 10 6 0 10 -4 10 -10z m-1180 -67 c0 -18 -4 -33 -9 -33 -5 0 -9 -19 -9 -42
0 -57 -12 -109 -23 -102 -11 7 -12 -76 -1 -94 8 -12 -26 -101 -39 -102 -9 0
-39 104 -39 138 0 17 -4 34 -10 37 -21 13 -8 85 15 85 8 0 16 9 20 19 3 11 12
22 20 25 22 8 18 33 -6 39 -13 4 -19 12 -18 24 2 10 0 23 -4 30 -4 6 -3 14 3
18 5 3 10 1 10 -4 0 -17 46 -13 60 4 17 21 30 3 30 -42z m1214 3 c-3 -7 2 -16
10 -19 23 -9 20 -27 -5 -27 -12 0 -18 4 -13 11 3 6 0 15 -7 20 -12 8 -12 11 1
19 20 13 20 12 14 -4z m61 -56 c3 -5 -1 -10 -9 -10 -9 0 -16 5 -16 10 0 6 4
10 9 10 6 0 13 -4 16 -10z m-235 -9 c0 -6 -4 -13 -10 -16 -5 -3 -10 1 -10 9 0
9 5 16 10 16 6 0 10 -4 10 -9z m297 -41 c8 0 13 -6 10 -12 -2 -7 -13 -11 -23
-10 -25 5 -26 6 -17 28 4 11 8 13 11 6 2 -7 10 -12 19 -12z m63 0 c0 -5 -2
-10 -4 -10 -3 0 -8 5 -11 10 -3 6 -1 10 4 10 6 0 11 -4 11 -10z m-2620 -5 c0
-2 -21 -16 -47 -29 -27 -13 -61 -36 -78 -50 -28 -25 -40 -30 -57 -27 -5 0 -8
-4 -8 -10 0 -8 -4 -8 -15 1 -21 18 -2 48 43 66 20 8 45 19 55 25 10 5 22 7 26
4 5 -3 24 2 42 10 39 17 39 16 39 10z m2632 -77 c-14 -14 -62 8 -62 29 0 16
14 17 40 3 16 -9 19 -8 14 7 -2 10 1 8 7 -5 9 -17 10 -25 1 -34z m58 0 c0 -22
-13 -23 -30 -3 -7 8 -9 23 -5 36 7 22 8 22 21 4 8 -10 14 -27 14 -37z m20 -43
c-7 -9 -15 -13 -17 -11 -7 7 7 26 19 26 6 0 6 -6 -2 -15z m-2940 -25 c-13 -11
-25 -20 -28 -20 -3 0 3 9 13 20 10 11 23 20 28 20 6 0 0 -9 -13 -20z m285 -10
c-3 -5 -10 -10 -16 -10 -5 0 -9 5 -9 10 0 6 7 10 16 10 8 0 12 -4 9 -10z
m1443 -17 c2 -9 -6 -13 -25 -12 -19 1 -22 3 -9 6 15 4 16 7 5 15 -11 7 -10 8
5 6 11 -2 21 -9 24 -15z m-2208 -9 c0 -2 -9 -4 -21 -4 -11 0 -18 4 -14 10 5 8
35 3 35 -6z m767 4 c7 -1 15 -10 19 -20 3 -10 16 -31 29 -46 19 -23 23 -35 16
-58 -4 -16 -4 -42 0 -58 5 -16 4 -36 -1 -45 -7 -13 -10 -12 -19 12 -12 30 -26
37 -18 8 4 -17 2 -17 -24 -4 -16 8 -29 20 -29 26 0 7 4 6 10 -3 8 -13 10 -12
10 3 0 9 -3 17 -8 17 -4 0 -12 10 -17 23 -18 40 -64 35 -121 -16 -59 -53 -73
-58 -103 -42 -23 12 -23 12 23 51 25 21 46 45 46 54 1 41 112 117 155 104 11
-3 26 -6 32 -6z m1197 -14 c18 -7 10 -34 -10 -34 -8 0 -14 9 -14 20 0 22 1 23
24 14z m-264 -114 c33 -26 14 -26 -25 0 -16 11 -23 20 -15 20 8 0 26 -9 40
-20z m-1145 -300 c3 -5 -8 -16 -24 -25 -37 -19 -41 -19 -41 0 0 25 52 46 65
25z m1071 -124 c6 -17 -12 -56 -26 -56 -9 0 -11 46 -3 63 7 12 23 8 29 -7z"/>
<path d="M2698 5873 c7 -3 16 -2 19 1 4 3 -2 6 -13 5 -11 0 -14 -3 -6 -6z"/>
<path d="M6528 4123 c-9 -11 -13 -27 -9 -42 6 -23 7 -22 18 14 14 45 12 52 -9
28z"/>
<path d="M7368 4133 c6 -2 18 -2 25 0 6 3 1 5 -13 5 -14 0 -19 -2 -12 -5z"/>
<path d="M6741 4087 c-15 -38 -14 -44 9 -50 22 -6 24 7 10 53 l-7 25 -12 -28z"/>
<path d="M7004 4064 c3 -26 6 -54 6 -63 0 -13 7 -16 35 -13 32 4 35 7 35 37 0
37 -36 85 -64 85 -16 0 -18 -6 -12 -46z"/>
<path d="M6380 4086 c0 -8 5 -18 10 -21 6 -3 10 3 10 14 0 12 -4 21 -10 21 -5
0 -10 -6 -10 -14z"/>
<path d="M6439 4034 c-7 -33 -16 -67 -21 -76 -10 -20 -54 -24 -60 -6 -3 7 -10
8 -17 4 -11 -7 -11 -10 0 -17 19 -12 136 -11 144 1 7 11 -14 131 -25 144 -5 4
-14 -18 -21 -50z"/>
<path d="M7388 4023 c7 -3 16 -2 19 1 4 3 -2 6 -13 5 -11 0 -14 -3 -6 -6z"/>
<path d="M6290 3940 c0 -5 5 -10 10 -10 6 0 10 5 10 10 0 6 -4 10 -10 10 -5 0
-10 -4 -10 -10z"/>
<path d="M7413 3910 c0 -25 2 -35 4 -22 2 12 2 32 0 45 -2 12 -4 2 -4 -23z"/>
<path d="M7525 3930 c3 -5 8 -10 11 -10 2 0 4 5 4 10 0 6 -5 10 -11 10 -5 0
-7 -4 -4 -10z"/>
<path d="M7477 3901 c-2 -10 -1 -24 3 -30 4 -7 7 1 8 18 1 35 -3 40 -11 12z"/>
<path d="M6342 3860 c0 -19 2 -27 5 -17 2 9 2 25 0 35 -3 9 -5 1 -5 -18z"/>
<path d="M6570 3842 l0 -43 68 3 c62 3 67 5 70 27 5 34 -11 45 -78 51 l-60 6
0 -44z"/>
<path d="M6510 3856 c0 -69 -47 -106 -135 -106 l-45 0 0 -45 0 -45 47 0 c26 0
67 9 95 22 l48 22 0 88 c0 48 -2 88 -5 88 -3 0 -5 -11 -5 -24z"/>
<path d="M6836 3838 c-30 -45 -22 -113 17 -155 18 -20 57 -32 57 -18 0 9 -38
149 -48 174 l-9 25 -17 -26z"/>
<path d="M7510 3811 c0 -25 6 -27 13 -6 4 8 2 17 -3 20 -6 4 -10 -3 -10 -14z"/>
<path d="M6330 3810 c0 -5 5 -10 10 -10 6 0 10 5 10 10 0 6 -4 10 -10 10 -5 0
-10 -4 -10 -10z"/>
<path d="M7382 3770 c0 -14 2 -19 5 -12 2 6 2 18 0 25 -3 6 -5 1 -5 -13z"/>
<path d="M7272 3722 c-1 -13 -6 -21 -11 -18 -11 7 -41 -37 -41 -59 0 -23 28
-18 45 9 10 15 15 38 12 58 -2 20 -4 24 -5 10z"/>
<path d="M7450 3737 c0 -9 60 -26 64 -18 3 4 0 8 -7 8 -7 0 -22 3 -34 7 -13 4
-23 5 -23 3z"/>
<path d="M7568 3723 c6 -2 18 -2 25 0 6 3 1 5 -13 5 -14 0 -19 -2 -12 -5z"/>
<path d="M7558 3703 c7 -3 16 -2 19 1 4 3 -2 6 -13 5 -11 0 -14 -3 -6 -6z"/>
<path d="M7314 3650 c-22 -39 -22 -39 -2 -46 27 -8 30 -3 26 45 l-3 41 -21
-40z"/>
<path d="M7465 3660 c3 -5 8 -10 11 -10 2 0 4 5 4 10 0 6 -5 10 -11 10 -5 0
-7 -4 -4 -10z"/>
<path d="M6528 3533 c5 -21 7 -23 10 -9 2 10 0 22 -6 28 -6 6 -7 0 -4 -19z"/>
<path d="M6871 3450 c-12 -40 -21 -74 -19 -76 3 -2 25 -7 51 -10 l46 -7 -9 29
c-5 16 -17 53 -27 82 l-19 53 -23 -71z"/>
<path d="M6280 3426 c0 -9 5 -16 10 -16 6 0 10 4 10 9 0 6 -4 13 -10 16 -5 3
-10 -1 -10 -9z"/>
<path d="M5490 3561 c0 -33 24 -47 61 -36 15 5 19 14 17 33 -3 23 -8 27 -40
30 -36 3 -38 2 -38 -27z"/>
<path d="M4885 3303 c-27 -7 -54 -32 -71 -66 -17 -32 -12 -145 8 -176 19 -31
63 -51 112 -51 61 0 110 46 119 111 17 128 -57 209 -168 182z"/>
<path d="M4337 3286 c-3 -7 -9 -34 -12 -60 l-7 -46 61 5 c34 2 66 7 71 10 6 3
10 24 10 46 0 24 -4 38 -10 34 -6 -3 -7 1 -4 9 5 13 -3 16 -49 16 -37 0 -57
-4 -60 -14z m96 -52 c-3 -8 -9 -14 -15 -14 -5 0 -7 -4 -4 -8 3 -5 -1 -9 -9 -9
-8 0 -15 5 -15 10 0 5 -8 3 -17 -4 -10 -8 -4 5 12 28 26 37 32 40 42 27 6 -9
9 -22 6 -30z"/>
<path d="M3041 2192 c-1 -8 -11 -12 -27 -10 -21 2 -27 -2 -30 -19 -3 -19 1
-23 20 -23 29 0 49 23 43 47 -3 10 -5 12 -6 5z"/>
<path d="M2895 2080 c-3 -5 -1 -10 4 -10 6 0 11 5 11 10 0 6 -2 10 -4 10 -3 0
-8 -4 -11 -10z"/>
<path d="M2990 1720 c0 -5 5 -10 10 -10 6 0 10 5 10 10 0 6 -4 10 -10 10 -5 0
-10 -4 -10 -10z"/>
<path d="M3021 1714 c0 -11 3 -14 6 -6 3 7 2 16 -1 19 -3 4 -6 -2 -5 -13z"/>
<path d="M5596 2245 c4 -8 8 -15 10 -15 2 0 4 7 4 15 0 8 -4 15 -10 15 -5 0
-7 -7 -4 -15z"/>
<path d="M5250 1820 c0 -5 5 -10 10 -10 6 0 10 5 10 10 0 6 -4 10 -10 10 -5 0
-10 -4 -10 -10z"/>
<path d="M4151 1561 c-34 -28 -34 -28 -10 -34 13 -4 28 -1 34 5 7 8 6 9 -2 4
-18 -10 -16 10 3 29 28 28 11 25 -25 -4z"/>
<path d="M5640 1381 c0 -5 5 -13 10 -16 6 -3 10 -2 10 4 0 5 -4 13 -10 16 -5
3 -10 2 -10 -4z"/>
<path d="M7035 5270 c-6 -10 42 -100 54 -100 11 0 81 50 81 58 0 4 -15 17 -33
30 -34 23 -91 30 -102 12z"/>
<path d="M7135 5183 c-43 -34 -46 -38 -26 -41 13 -2 32 5 45 17 12 12 25 21
29 21 16 0 5 -29 -15 -45 -22 -16 -22 -16 5 0 40 23 48 8 12 -21 -40 -32 -18
-31 25 1 19 14 29 25 22 25 -17 0 -15 40 3 46 20 8 19 20 -2 20 -10 1 -25 4
-33 8 -10 4 -34 -7 -65 -31z"/>
<path d="M7011 5197 c2 -1 13 -9 24 -17 19 -14 19 -14 6 3 -7 9 -18 17 -24 17
-6 0 -8 -1 -6 -3z"/>
<path d="M7286 5142 c-4 -6 -29 -23 -56 -38 -50 -27 -60 -51 -14 -33 22 8 25
7 20 -6 -7 -20 2 -19 42 5 37 23 42 34 10 25 -21 -5 -21 -5 -5 6 11 6 24 12
30 13 13 2 17 9 17 29 0 8 -4 7 -10 -3 -8 -12 -11 -13 -19 -1 -6 9 -11 10 -15
3z"/>
<path d="M4262 5103 c-6 -21 -16 -56 -22 -79 -5 -22 -23 -61 -40 -85 -42 -62
-41 -107 5 -150 19 -19 35 -41 35 -51 0 -10 5 -18 10 -18 6 0 10 4 10 8 0 5 9
19 20 32 15 17 26 21 45 16 43 -11 65 -41 65 -91 0 -42 3 -47 43 -72 23 -16
53 -38 67 -51 l25 -23 17 38 c24 53 23 87 -4 107 -13 9 -16 14 -8 10 12 -6 11
-3 -2 12 -16 18 -16 23 -1 66 10 26 29 53 44 64 15 10 25 24 22 31 -8 20 -50
16 -73 -7 -25 -25 -40 -25 -40 -1 0 11 5 23 10 26 6 3 10 14 10 24 0 9 9 27
20 39 24 26 28 51 5 32 -12 -10 -15 -10 -15 4 0 9 -3 15 -7 15 -23 -4 -34 4
-43 26 -5 14 -18 28 -27 31 -42 13 -122 58 -117 66 3 4 -2 5 -11 1 -10 -3 -20
-1 -24 6 -5 7 -12 -3 -19 -26z"/>
<path d="M7110 5100 c0 -11 4 -20 9 -20 5 0 7 9 4 20 -3 11 -7 20 -9 20 -2 0
-4 -9 -4 -20z"/>
<path d="M6820 5074 l-35 -14 34 6 c21 4 36 2 41 -6 5 -8 9 -5 13 9 6 24 -4
25 -53 5z"/>
<path d="M7280 5049 l-35 -31 40 23 c51 28 63 39 45 39 -8 0 -31 -14 -50 -31z"/>
<path d="M7170 5040 c0 -5 5 -10 10 -10 6 0 10 5 10 10 0 6 -4 10 -10 10 -5 0
-10 -4 -10 -10z"/>
<path d="M6705 4980 l-40 -7 35 -1 c19 -1 42 3 50 8 16 11 14 11 -45 0z"/>
<path d="M6878 4973 c7 -3 16 -2 19 1 4 3 -2 6 -13 5 -11 0 -14 -3 -6 -6z"/>
<path d="M1222 4911 c2 -7 7 -12 11 -12 12 1 9 15 -3 20 -7 2 -11 -2 -8 -8z"/>
<path d="M5071 4434 c0 -11 3 -14 6 -6 3 7 2 16 -1 19 -3 4 -6 -2 -5 -13z"/>
<path d="M5530 4270 c8 -5 26 -9 40 -9 23 0 23 1 5 9 -11 5 -29 9 -40 9 -17 1
-17 -1 -5 -9z"/>
<path d="M5617 4203 c-10 -10 -8 -53 2 -53 10 0 21 24 21 46 0 15 -12 19 -23
7z"/>
<path d="M1936 4191 c-4 -7 -5 -15 -2 -18 9 -9 19 4 14 18 -4 11 -6 11 -12 0z"/>
<path d="M1739 4148 c-45 -30 -67 -69 -67 -118 0 -8 -3 -49 -7 -91 -4 -42 -5
-101 -1 -131 l7 -56 102 -4 c147 -5 187 -34 187 -132 0 -29 -8 -55 -23 -78
-21 -30 -22 -36 -10 -55 8 -12 18 -61 21 -110 5 -67 10 -88 21 -88 22 0 34 61
27 135 -12 122 -3 172 39 231 l33 47 -24 38 c-25 42 -29 84 -14 151 7 32 6 48
-5 70 -8 15 -15 34 -15 41 0 8 -20 12 -64 12 -70 0 -91 -12 -102 -56 -5 -21
-12 -24 -48 -24 -24 0 -45 3 -48 6 -4 3 5 31 19 62 14 31 36 85 49 120 l23 62
-27 0 c-15 -1 -48 -15 -73 -32z"/>
<path d="M1911 4128 c-16 -46 -15 -48 29 -48 48 0 50 9 11 49 l-29 30 -11 -31z"/>
<path d="M2620 4060 c0 -5 7 -7 15 -4 8 4 15 8 15 10 0 2 -7 4 -15 4 -8 0 -15
-4 -15 -10z"/>
<path d="M4377 4057 c-11 -29 -9 -43 4 -30 6 6 9 19 7 29 -3 18 -4 18 -11 1z"/>
<path d="M4170 3999 c0 -5 5 -7 10 -4 6 3 10 8 10 11 0 2 -4 4 -10 4 -5 0 -10
-5 -10 -11z"/>
<path d="M4230 3990 c0 -5 5 -10 11 -10 5 0 7 5 4 10 -3 6 -8 10 -11 10 -2 0
-4 -4 -4 -10z"/>
<path d="M1678 3610 l-3 -80 91 0 c77 0 95 3 118 21 21 16 26 29 26 64 0 64
-21 75 -136 75 l-92 0 -4 -80z"/>
<path d="M2306 3671 c36 -22 74 -67 75 -90 0 -9 3 -11 5 -4 12 29 -60 113 -98
113 -7 0 1 -9 18 -19z"/>
<path d="M2633 3679 c-81 -24 -125 -167 -85 -271 6 -14 28 -39 48 -55 33 -24
46 -28 105 -28 53 0 74 5 96 21 48 36 66 78 67 158 1 79 -18 123 -66 159 -31
23 -115 32 -165 16z"/>
<path d="M1350 3594 l0 -87 61 6 c78 7 102 28 103 90 1 65 -13 77 -95 77 l-69
0 0 -86z"/>
<path d="M1086 3613 c-3 -15 -8 -52 -11 -82 -5 -44 -3 -52 9 -48 9 4 17 -1 20
-11 3 -9 2 24 0 73 -3 50 -7 91 -9 93 -2 2 -6 -9 -9 -25z"/>
<path d="M1303 3455 c0 -22 2 -30 4 -17 2 12 2 30 0 40 -3 9 -5 -1 -4 -23z"/>
<path d="M1684 3461 c12 -19 -30 -193 -68 -281 -10 -25 -23 -60 -27 -77 -7
-32 -6 -33 25 -33 42 0 110 -57 126 -106 13 -37 6 -113 -12 -149 -6 -11 -20
-30 -31 -43 l-21 -22 35 -36 c32 -33 34 -40 37 -114 4 -71 1 -85 -21 -122 -29
-49 -87 -86 -162 -103 -27 -6 -49 -16 -48 -21 20 -115 78 -205 130 -201 25 2
29 -4 55 -77 16 -44 49 -115 74 -158 45 -76 47 -82 55 -191 4 -62 9 -147 10
-190 3 -119 42 -228 92 -253 26 -14 31 -13 62 6 l35 22 0 87 c0 85 -1 88 -31
117 -39 36 -68 98 -69 143 0 44 34 115 68 142 21 16 26 27 23 57 -3 36 -24 84
-48 110 -7 7 -13 18 -13 23 0 6 -32 41 -70 78 -77 75 -77 74 -71 201 2 47 5
59 11 45 7 -17 9 -17 9 -2 1 9 6 17 11 17 6 0 10 5 10 11 0 6 -6 9 -14 6 -10
-4 -12 0 -9 14 4 13 0 19 -12 19 -12 0 -15 5 -10 18 4 9 10 40 14 67 4 28 15
62 24 76 10 15 22 42 27 60 8 30 8 32 -5 15 -13 -17 -14 -15 -20 18 -4 20 -11
36 -16 36 -5 0 -7 16 -5 36 3 20 0 63 -6 95 -10 59 3 149 22 149 4 0 15 16 24
35 10 19 35 52 56 72 22 20 40 42 40 50 0 7 5 13 10 13 17 0 11 99 -7 131 -13
22 -24 29 -42 27 -30 -4 -39 19 -40 107 -1 34 -6 66 -13 73 -14 14 -202 17
-194 3z m173 -893 c-3 -8 -6 -5 -6 6 -1 11 2 17 5 13 3 -3 4 -12 1 -19z"/>
<path d="M1397 3453 c-3 -5 4 -35 15 -68 20 -63 47 -95 79 -95 24 0 24 16 2
103 l-17 67 -38 0 c-20 0 -39 -3 -41 -7z"/>
<path d="M1067 3443 c-4 -3 -7 -16 -7 -27 0 -17 2 -18 10 -6 8 13 10 12 10 -2
0 -10 5 -18 10 -18 11 0 12 6 4 38 -6 22 -15 27 -27 15z"/>
<path d="M2130 3346 c0 -2 7 -7 16 -10 8 -3 12 -2 9 4 -6 10 -25 14 -25 6z"/>
<path d="M4550 3240 l0 -60 43 0 c51 0 87 9 87 22 0 5 -4 7 -9 4 -18 -12 -71
16 -72 37 -1 18 -2 19 -6 4 -3 -10 -10 -16 -16 -14 -15 5 -17 49 -2 59 6 5 3
8 -7 8 -15 0 -18 -9 -18 -60z"/>
<path d="M4650 3288 c0 -7 9 -26 19 -41 23 -35 38 -19 19 20 -14 29 -38 43
-38 21z"/>
<path d="M5224 3278 c-35 -16 -64 -79 -64 -137 0 -56 9 -62 40 -29 l20 22 -1
-30 c-1 -16 -6 -40 -12 -53 -10 -20 -8 -26 12 -42 33 -27 75 -24 111 9 24 21
33 41 42 88 14 76 4 129 -29 160 -28 26 -80 31 -119 12z"/>
<path d="M1410 2875 l0 -65 73 0 c64 0 69 2 48 13 -21 10 -25 19 -25 64 l-1
53 -47 0 -48 0 0 -65z"/>
<path d="M2933 2920 c2 -8 12 -16 23 -17 13 -2 15 -1 4 4 -8 3 -19 11 -23 17
-6 7 -7 6 -4 -4z"/>
<path d="M1573 2913 c13 -21 16 -68 4 -82 -11 -14 -10 -14 6 -2 21 17 20 82
-2 89 -8 3 -11 0 -8 -5z"/>
<path d="M4336 2823 c-3 -3 -6 -26 -6 -50 0 -41 1 -43 30 -43 22 0 30 5 30 18
1 21 18 45 45 60 19 11 19 11 -5 13 -14 1 -39 3 -56 5 -17 2 -34 1 -38 -3z"/>
<path d="M4870 2724 c-8 -22 -15 -41 -15 -44 -1 -3 -5 -14 -10 -25 -4 -11 -14
-34 -20 -51 l-13 -31 61 -6 c34 -3 63 -4 65 -2 2 1 -4 25 -12 51 -8 27 -21 71
-28 98 l-13 49 -15 -39z m17 -36 c-3 -8 -6 -5 -6 6 -1 11 2 17 5 13 3 -3 4
-12 1 -19z"/>
<path d="M1417 2638 c-3 -24 -9 -61 -12 -83 l-7 -40 44 0 c23 0 43 5 44 10 0
6 4 35 9 65 5 30 9 60 10 65 0 6 5 13 10 17 6 4 -13 8 -41 8 l-51 0 -6 -42z"/>
<path d="M1590 2628 c-1 -13 -7 -41 -15 -63 -16 -44 -12 -56 11 -33 20 20 31
103 15 112 -7 5 -11 -2 -11 -16z"/>
<path d="M4320 2628 c-1 -2 -4 -31 -7 -65 -5 -59 -4 -63 15 -63 16 0 22 9 27
40 5 27 12 40 23 41 14 0 13 2 -3 9 -11 5 -16 9 -11 9 14 1 -15 31 -30 31 -8
0 -14 -1 -14 -2z"/>
<path d="M6820 2620 c0 -5 -7 -7 -15 -4 -8 4 -15 1 -15 -5 0 -6 19 -11 45 -11
25 0 45 5 45 10 0 6 -11 8 -26 4 -19 -5 -25 -4 -20 5 4 6 2 11 -3 11 -6 0 -11
-4 -11 -10z"/>
<path d="M6950 2526 c0 -105 0 -106 76 -106 60 0 56 16 -6 25 l-50 7 6 84 c6
74 5 84 -10 84 -14 0 -16 -13 -16 -94z"/>
<path d="M6780 2570 c0 -11 2 -20 5 -20 2 0 9 9 15 20 9 16 8 20 -5 20 -8 0
-15 -9 -15 -20z"/>
<path d="M7166 2582 c-2 -4 -1 -14 4 -22 7 -11 9 -9 7 8 -1 24 -3 26 -11 14z"/>
<path d="M2276 2477 c3 -10 9 -15 12 -12 3 3 0 11 -7 18 -10 9 -11 8 -5 -6z"/>
<path d="M2040 2458 c0 -16 -4 -28 -10 -28 -5 0 -10 9 -10 21 0 23 -21 22 -28
-2 -3 -11 -2 -11 7 1 9 12 11 10 11 -12 0 -33 3 -34 41 -7 28 20 39 49 19 49
-5 0 -10 -6 -10 -12 0 -9 -4 -8 -10 2 -8 12 -10 9 -10 -12z"/>
<path d="M6770 2471 c0 -12 29 -35 36 -28 4 3 -1 13 -9 22 -17 17 -27 19 -27
6z"/>
<path d="M4847 2443 c17 -48 52 -57 77 -21 24 34 20 38 -34 38 -43 0 -49 -2
-43 -17z m53 -13 c0 -5 -2 -10 -4 -10 -3 0 -8 5 -11 10 -3 6 -1 10 4 10 6 0
11 -4 11 -10z"/>
<path d="M2066 2424 c-9 -23 -2 -28 13 -10 7 8 8 17 3 20 -6 3 -13 -1 -16 -10z"/>
<path d="M1853 2367 c2 -7 16 -13 32 -15 21 -3 25 -6 14 -13 -10 -6 -5 -9 19
-9 22 0 32 -5 32 -15 0 -8 5 -15 10 -15 6 0 10 9 10 19 0 14 -8 21 -27 24
l-28 4 28 2 c30 1 36 17 10 25 -36 10 -104 5 -100 -7z"/>
<path d="M1984 2318 c3 -13 6 -31 6 -40 0 -10 5 -18 10 -18 17 0 24 31 9 41
-11 7 -11 9 -1 9 10 0 10 3 -2 15 -21 21 -29 19 -22 -7z"/>
<path d="M2043 2270 c-13 -5 -23 -14 -23 -20 0 -6 5 -8 10 -5 6 3 10 0 10 -8
0 -9 11 -13 33 -12 33 1 38 15 15 42 -12 15 -15 15 -45 3z"/>
<path d="M6971 2124 c0 -11 3 -14 6 -6 3 7 2 16 -1 19 -3 4 -6 -2 -5 -13z"/>
<path d="M6348 2043 c7 -3 16 -2 19 1 4 3 -2 6 -13 5 -11 0 -14 -3 -6 -6z"/>
<path d="M6415 2010 c3 -5 8 -10 11 -10 2 0 4 5 4 10 0 6 -5 10 -11 10 -5 0
-7 -4 -4 -10z"/>
<path d="M7045 2000 c3 -5 8 -10 11 -10 2 0 4 5 4 10 0 6 -5 10 -11 10 -5 0
-7 -4 -4 -10z"/>
<path d="M6364 1914 c2 -21 4 -47 5 -57 1 -21 53 -77 71 -77 8 0 8 6 0 20 -6
11 -8 25 -5 30 3 6 -1 10 -9 10 -13 0 -26 22 -32 57 -1 6 -9 22 -18 34 -15 21
-15 21 -12 -17z"/>
<path d="M7158 1942 c-10 -2 -18 -8 -18 -13 0 -13 27 -11 35 2 9 13 4 16 -17
11z"/>
<path d="M7430 1871 c0 -6 4 -13 10 -16 6 -3 7 1 4 9 -7 18 -14 21 -14 7z"/>
<path d="M7450 1819 c0 -5 5 -7 10 -4 6 3 10 8 10 11 0 2 -4 4 -10 4 -5 0 -10
-5 -10 -11z"/>
<path d="M4832 1800 c0 -14 2 -19 5 -12 2 6 2 18 0 25 -3 6 -5 1 -5 -13z"/>
<path d="M7500 1804 c0 -8 5 -12 10 -9 6 4 8 11 5 16 -9 14 -15 11 -15 -7z"/>
<path d="M7255 1800 c-3 -5 -1 -10 4 -10 6 0 11 5 11 10 0 6 -2 10 -4 10 -3 0
-8 -4 -11 -10z"/>
<path d="M2010 1710 c0 -5 5 -10 10 -10 6 0 10 5 10 10 0 6 -4 10 -10 10 -5 0
-10 -4 -10 -10z"/>
<path d="M2037 1645 c-20 -19 -37 -36 -37 -39 0 -4 17 -6 37 -6 34 0 35 1 17
14 -19 14 -18 15 5 35 13 12 22 23 20 26 -3 2 -21 -11 -42 -30z"/>
<path d="M2326 1194 c-10 -25 -7 -34 8 -28 8 3 12 13 10 22 -5 13 -2 13 10 -2
13 -16 16 -17 16 -4 0 9 -7 19 -16 22 -21 8 -21 8 -28 -10z"/>
<path d="M1865 1130 c3 -5 8 -10 11 -10 2 0 4 5 4 10 0 6 -5 10 -11 10 -5 0
-7 -4 -4 -10z"/>
<path d="M1840 1110 c0 -5 5 -10 10 -10 6 0 10 5 10 10 0 6 -4 10 -10 10 -5 0
-10 -4 -10 -10z"/>
<path d="M1743 1083 c-7 -2 -13 -8 -13 -13 0 -10 47 -3 69 10 12 7 9 9 -14 9
-16 0 -36 -3 -42 -6z"/>
<path d="M5370 1070 c0 -5 5 -10 10 -10 6 0 10 5 10 10 0 6 -4 10 -10 10 -5 0
-10 -4 -10 -10z"/>
<path d="M1381 844 c0 -11 3 -14 6 -6 3 7 2 16 -1 19 -3 4 -6 -2 -5 -13z"/>
<path d="M1510 710 c-43 -7 -43 -7 -10 -9 l35 -2 -22 -18 c-13 -11 -23 -22
-23 -26 0 -10 161 4 180 16 13 7 12 8 -2 9 -10 0 -32 9 -50 20 -35 21 -36 21
-108 10z"/>
</g>
</svg>
